<svg width="20" height="23" viewBox="0 0 20 23" fill="none" xmlns="http://www.w3.org/2000/svg">
<path d="M1.11877 16.2577L0.288781 15.7L0.288781 15.7L1.11877 16.2577ZM2.42712 12.0644L1.42712 12.0536V12.0644H2.42712ZM2.45458 9.52907L3.45458 9.5399V9.52907H2.45458ZM18.8882 16.2781L19.7288 15.7364L19.7288 15.7364L18.8882 16.2781ZM17.6291 12.0644L16.6291 12.053V12.0644H17.6291ZM17.6566 9.65471L18.6566 9.6661V9.65471H17.6566ZM7 20.25C6.44772 20.25 6 20.6977 6 21.25C6 21.8023 6.44772 22.25 7 22.25V20.25ZM13 22.25C13.5523 22.25 14 21.8023 14 21.25C14 20.6977 13.5523 20.25 13 20.25V22.25ZM1.94876 16.8155C2.69499 15.7051 3.42712 14.061 3.42712 12.0644H1.42712C1.42712 13.5672 0.874074 14.829 0.288781 15.7L1.94876 16.8155ZM3.42706 12.0752L3.45452 9.5399L1.45464 9.51824L1.42718 12.0536L3.42706 12.0752ZM19.7288 15.7364C19.1674 14.8653 18.6291 13.5899 18.6291 12.0644H16.6291C16.6291 14.0623 17.3316 15.7087 18.0477 16.8198L19.7288 15.7364ZM18.629 12.0758L18.6565 9.6661L16.6566 9.64331L16.6292 12.053L18.629 12.0758ZM18.6566 9.65471C18.6566 4.44126 14.8925 0 10 0V2C13.5647 2 16.6566 5.30844 16.6566 9.65471H18.6566ZM18.43 18.4531C19.2584 18.4531 19.7115 17.8102 19.8741 17.3785C20.0452 16.9241 20.0808 16.2826 19.7288 15.7364L18.0476 16.8198C18.0054 16.7542 18.0007 16.7043 18.0001 16.6926C17.9995 16.681 18.0009 16.6776 18.0024 16.6737C18.0028 16.6725 18.0169 16.6326 18.0743 16.5817C18.1395 16.5238 18.2637 16.4531 18.43 16.4531V18.4531ZM3.45458 9.52907C3.45458 5.25219 6.49672 2 10 2V0C5.16885 0 1.45458 4.38501 1.45458 9.52907H3.45458ZM1.57109 16.4531C1.74105 16.4531 1.86647 16.5266 1.93063 16.5846C1.96049 16.6116 1.97751 16.6349 1.98601 16.6482C1.99465 16.6617 1.99793 16.6701 1.99878 16.6725C1.99929 16.6739 2.00048 16.6752 1.99983 16.6858C1.99919 16.6963 1.99411 16.748 1.94876 16.8155L0.288781 15.7C-0.0798419 16.2485 -0.0469278 16.9011 0.120158 17.3586C0.278207 17.7913 0.729502 18.4531 1.57109 18.4531V16.4531ZM18.43 16.4531H1.57109V18.4531H18.43V16.4531ZM7 22.25H13V20.25H7V22.25Z" fill="#0057FF"/>
</svg>
