<svg width="134" height="54" viewBox="0 0 134 54" fill="none" xmlns="http://www.w3.org/2000/svg">
<g clip-path="url(#clip0_67_10)">
<path d="M39.2206 42.8465V14.6814C39.2206 14.0248 39.5284 13.7002 40.1442 13.7002H50.719C53.0387 13.7002 54.8286 14.3567 56.0959 15.6697C57.356 16.9828 57.9932 18.8585 57.9932 21.2898V23.2088C57.9932 25.8637 56.8333 27.5808 54.5136 28.3599C55.6878 28.5475 56.6257 29.0525 57.3345 29.8822C58.0361 30.7118 58.3941 31.8878 58.3941 33.4172V36.2309C58.3941 38.6693 57.7641 40.5451 56.4968 41.8509C55.2367 43.1639 53.454 43.8204 51.1629 43.8204H40.1442C39.5284 43.8204 39.2206 43.4958 39.2206 42.8393V42.8465ZM45.2991 25.9287H49.7954C50.7333 25.9287 51.4278 25.7194 51.8645 25.2938C52.3084 24.8753 52.5232 24.1755 52.5232 23.2088V21.3836C52.5232 20.4168 52.3084 19.717 51.886 19.2986C51.4564 18.8802 50.7763 18.6637 49.8383 18.6637H45.2991C44.9769 18.6637 44.8123 18.8369 44.8123 19.1759V25.4092C44.8123 25.7555 44.9769 25.9214 45.2991 25.9214V25.9287ZM45.2991 38.8641H50.2321C51.1987 38.8641 51.9003 38.6549 52.3227 38.2293C52.7452 37.8108 52.9599 37.111 52.9599 36.1443V33.4244C52.9599 32.4577 52.738 31.7723 52.3013 31.3611C51.8574 30.9571 51.1414 30.7551 50.139 30.7551H45.292C44.9698 30.7551 44.8051 30.9283 44.8051 31.2673V38.3447C44.8051 38.691 44.9698 38.8569 45.292 38.8569L45.2991 38.8641Z" fill="white"/>
<path d="M63.456 15.9006V11.8244C63.456 11.1968 63.7496 10.8866 64.3366 10.8866H68.1671C68.7541 10.8866 69.0477 11.1824 69.0477 11.7739V15.9006C69.0477 16.5283 68.7541 16.8385 68.1671 16.8385H64.3366C63.7496 16.8385 63.456 16.5283 63.456 15.9006ZM63.456 42.8465V20.9146C63.456 20.2581 63.7496 19.9335 64.3366 19.9335H68.1241C68.7398 19.9335 69.0477 20.2581 69.0477 20.9146V42.8465C69.0477 43.2505 68.9833 43.5174 68.8472 43.6401C68.7112 43.7627 68.4892 43.8276 68.1599 43.8276H64.3724C63.7567 43.8276 63.4489 43.503 63.4489 42.8465H63.456Z" fill="white"/>
<path d="M73.0642 42.8465V41.3026C73.0642 40.2421 73.3434 39.3331 73.9019 38.5828L83.2452 25.2289V25.0413H74.3887C73.773 25.0413 73.4651 24.695 73.4651 24.0096V20.9146C73.4651 20.2581 73.773 19.9335 74.3887 19.9335H88.751C89.3667 19.9335 89.6746 20.2581 89.6746 20.9146V23.7283C89.6746 24.7311 89.4383 25.5391 88.9658 26.1667L80.3312 38.5395V38.7271H89.2307C89.8464 38.7271 90.1543 39.0734 90.1543 39.7587V42.8537C90.1543 43.5102 89.8464 43.8349 89.2307 43.8349H73.9878C73.3721 43.8349 73.0642 43.5102 73.0642 42.8537V42.8465Z" fill="white"/>
<path d="M110.473 43.8276H100.736C98.4165 43.8276 96.6194 43.1711 95.3593 41.8581C94.0993 40.5451 93.462 38.6549 93.462 36.1876V27.5663C93.462 25.099 94.0921 23.2088 95.3593 21.8958C96.6194 20.5828 98.4165 19.9262 100.736 19.9262H104.216C106.536 19.9262 108.325 20.5828 109.593 21.8958C110.853 23.2088 111.49 25.099 111.49 27.5663V33.5182C111.49 34.1747 111.182 34.4994 110.566 34.4994H99.5048C99.154 34.4994 98.975 34.6725 98.975 35.0116V36.0433C98.975 37.01 99.1754 37.7098 99.5692 38.1282C99.963 38.5467 100.636 38.7631 101.574 38.7631H110.473C111.089 38.7631 111.397 39.1094 111.397 39.7948V42.8898C111.397 43.2361 111.333 43.4741 111.196 43.6184C111.06 43.7627 110.824 43.8276 110.466 43.8276H110.473ZM99.4976 30.5242H105.49C105.812 30.5242 105.977 30.3511 105.977 30.012V27.7611C105.977 26.7583 105.784 26.0585 105.404 25.6545C105.025 25.2505 104.359 25.0485 103.421 25.0485H101.574C100.636 25.0485 99.9702 25.2505 99.5907 25.6545C99.2112 26.0585 99.0179 26.7655 99.0179 27.7611V30.012C99.0179 30.3583 99.1754 30.5242 99.5048 30.5242H99.4976Z" fill="white"/>
<path d="M123.912 43.8276H122.108C119.845 43.8276 118.134 43.1711 116.974 41.8581C115.815 40.5451 115.235 38.6549 115.235 36.1876V27.5663C115.235 25.099 115.815 23.2088 116.974 21.8958C118.134 20.5828 119.845 19.9262 122.108 19.9262H123.912C124.821 19.9262 125.688 20.1355 126.511 20.5611C127.334 20.9796 127.907 21.6144 128.229 22.4585H128.408V11.8677C128.408 11.2112 128.716 10.8866 129.332 10.8866H133.076C133.692 10.8866 134 11.2112 134 11.8677V42.8393C134 43.4958 133.692 43.8204 133.076 43.8204H129.332C128.716 43.8204 128.408 43.4958 128.408 42.8393V41.2954H128.229C127.907 42.1395 127.334 42.7743 126.511 43.1928C125.688 43.6112 124.821 43.8276 123.912 43.8276ZM128.408 35.1126V28.6485C128.408 26.2749 127.392 25.0846 125.366 25.0846H123.382C122.444 25.0846 121.779 25.2938 121.399 25.7194C121.02 26.1379 120.826 26.8521 120.826 27.8549V35.9134C120.826 36.9162 121.02 37.6232 121.399 38.0489C121.779 38.4673 122.444 38.6838 123.382 38.6838H125.366C127.392 38.6838 128.408 37.4934 128.408 35.1198V35.1126Z" fill="white"/>
<path d="M27.8224 22.0689L18.6867 16.4056V20.9363L27.8224 26.5996V40.9275L17.8848 47.0886V23.584V20.4385V15.9078V15.2224V4.53066V0L14.0544 2.37355L3.83041 8.72224L0 11.103V15.6337V42.3054L3.83041 44.679V13.2529L14.0544 6.91142V13.5343V18.0649V49.4621V54L17.8848 51.6192L27.8224 45.4581L31.6456 43.0774V38.5467V28.9804V24.4497L27.8224 22.0689Z" fill="white"/>
</g>
<defs>
<clipPath id="clip0_67_10">
<rect width="134" height="54" fill="white"/>
</clipPath>
</defs>
</svg>
