<svg width="323" height="179" viewBox="0 0 323 179" fill="none" xmlns="http://www.w3.org/2000/svg">
<rect y="7" width="323" height="132" rx="10" fill="#0057FF" fill-opacity="0.1"/>
<rect y="43" width="323" height="136" rx="10" fill="#0057FF"/>
<path d="M303.419 154.144H207.993C203.974 154.144 200.937 151.122 201.242 147.43L212.935 6.71315C213.24 3.022 216.783 0 220.802 0H316.228C320.247 0 323.284 3.022 322.979 6.71315L311.286 147.436C310.981 151.127 307.438 154.149 303.419 154.149V154.144Z" fill="#407BFF"/>
<path opacity="0.5" d="M303.419 154.144H207.993C203.974 154.144 200.937 151.122 201.242 147.43L212.935 6.71315C213.24 3.022 216.783 0 220.802 0H316.228C320.247 0 323.284 3.022 322.979 6.71315L311.286 147.436C310.981 151.127 307.438 154.149 303.419 154.149V154.144Z" fill="white"/>
<path d="M301.997 154.144H206.571C202.552 154.144 199.515 151.122 199.82 147.43L211.513 6.71315C211.818 3.022 215.361 0 219.38 0H314.806C318.825 0 321.863 3.022 321.557 6.71315L309.865 147.436C309.559 151.127 306.016 154.149 301.997 154.149V154.144Z" fill="#407BFF"/>
<path opacity="0.7" d="M301.997 154.144H206.571C202.552 154.144 199.515 151.122 199.82 147.43L211.513 6.71315C211.818 3.022 215.361 0 219.38 0H314.806C318.825 0 321.863 3.022 321.557 6.71315L309.865 147.436C309.559 151.127 306.016 154.149 301.997 154.149V154.144Z" fill="white"/>
<path d="M206.759 151.909C204.074 151.909 202.053 149.902 202.259 147.436L213.792 8.58033C213.998 6.11416 216.348 4.10669 219.039 4.10669H314.465C317.15 4.10669 319.171 6.11416 318.966 8.58033L307.432 147.436C307.226 149.902 304.876 151.909 302.185 151.909H206.759Z" fill="#407BFF"/>
<path opacity="0.2" d="M301.509 27.4624H233.223C231.636 27.4624 230.432 26.2698 230.555 24.8074C230.679 23.3503 232.077 22.1523 233.664 22.1523H301.95C303.536 22.1523 304.741 23.3449 304.617 24.8074C304.494 26.2644 303.096 27.4624 301.509 27.4624Z" fill="black"/>
<path opacity="0.3" d="M272.378 2.73599H261.35C260.956 2.73599 260.662 2.44458 260.691 2.08302C260.721 1.72146 261.068 1.43005 261.455 1.43005H272.484C272.878 1.43005 273.171 1.72146 273.142 2.08302C273.113 2.44458 272.766 2.73599 272.378 2.73599Z" fill="#407BFF"/>
<path d="M232.923 24.8074C233.258 20.7493 229.95 17.4682 225.538 17.4682H294.864C299.277 17.4682 302.585 20.7493 302.25 24.8074H232.923Z" fill="#F0F0F0"/>
<path d="M225.538 17.4682C221.125 17.4682 217.271 20.7493 216.936 24.8074L209.832 110.325C209.497 114.383 205.637 117.664 201.23 117.664H270.557C274.969 117.664 278.824 114.383 279.158 110.325L286.262 24.8074C286.597 20.7493 290.457 17.4682 294.864 17.4682H225.538Z" fill="white"/>
<path d="M263.177 110.325C262.842 114.383 266.15 117.664 270.562 117.664H201.236C196.824 117.664 193.516 114.383 193.85 110.325H263.177Z" fill="#F0F0F0"/>
<path d="M222.594 108.635C222.853 105.511 221.783 102.98 218.387 102.98H271.773C275.169 102.98 277.725 105.835 275.98 108.635H222.594Z" fill="#E0E0E0"/>
<path d="M263.177 110.325C263.512 106.266 267.372 102.985 271.779 102.985H202.453C198.04 102.985 194.186 106.266 193.851 110.325H263.177Z" fill="#F0F0F0"/>
<path d="M295.957 131.527H216.372C215.22 131.527 214.345 130.658 214.433 129.601C214.521 128.543 215.537 127.674 216.689 127.674H296.274C297.426 127.674 298.301 128.543 298.213 129.601C298.125 130.658 297.109 131.527 295.957 131.527Z" fill="white"/>
<path d="M255.768 140.787H215.602C214.45 140.787 213.575 139.919 213.663 138.861C213.751 137.803 214.768 136.934 215.919 136.934H256.085C257.237 136.934 258.112 137.803 258.024 138.861C257.936 139.919 256.919 140.787 255.768 140.787Z" fill="white"/>
<path d="M283.571 140.787H267.302C266.15 140.787 265.274 139.919 265.363 138.861C265.451 137.803 266.467 136.934 267.619 136.934H283.888C285.04 136.934 285.915 137.803 285.827 138.861C285.739 139.919 284.723 140.787 283.571 140.787Z" fill="white"/>
<path d="M299.847 104.14L295.693 104.739C295.528 104.259 295.369 103.93 295.217 103.741C295.064 103.552 294.811 103.369 294.441 103.18L294.2 106.11C296.392 106.655 297.831 107.238 298.536 107.842C299.459 108.662 299.87 109.699 299.764 110.956C299.706 111.69 299.471 112.37 299.059 112.985C298.654 113.6 298.155 114.113 297.561 114.523C296.974 114.933 296.357 115.235 295.716 115.419C295.076 115.602 294.3 115.716 293.395 115.748L293.237 117.664H291.627L291.785 115.748C290.71 115.662 289.846 115.5 289.194 115.268C288.542 115.036 287.99 114.712 287.531 114.302C287.079 113.892 286.738 113.444 286.509 112.969C286.286 112.494 286.133 111.916 286.057 111.242L290.551 110.767C290.628 111.436 290.769 111.916 290.969 112.213C291.168 112.51 291.515 112.775 292.009 113.001L292.308 109.423C290.857 109.046 289.829 108.716 289.229 108.441C288.63 108.166 288.131 107.718 287.725 107.108C287.32 106.498 287.155 105.754 287.226 104.874C287.326 103.671 287.866 102.667 288.848 101.858C289.829 101.048 291.227 100.6 293.043 100.514L293.125 99.5101H294.735L294.653 100.514C296.292 100.611 297.52 100.967 298.343 101.588C299.159 102.208 299.659 103.061 299.835 104.14H299.847ZM292.837 103.131C292.355 103.271 292.015 103.45 291.809 103.66C291.609 103.87 291.497 104.119 291.474 104.405C291.45 104.701 291.521 104.961 291.691 105.182C291.862 105.403 292.173 105.586 292.626 105.738L292.843 103.131H292.837ZM293.619 113.109C294.253 112.98 294.729 112.769 295.046 112.472C295.364 112.176 295.534 111.846 295.563 111.479C295.593 111.161 295.493 110.87 295.27 110.6C295.046 110.33 294.588 110.082 293.895 109.855L293.624 113.104L293.619 113.109Z" fill="white"/>
<path d="M221.578 41.2719H223.552L223.064 47.1324H221.09L221.578 41.2719Z" fill="#407BFF"/>
<path d="M224.985 41.2719H226.824L228.957 44.5151L229.227 41.2719H231.084L230.596 47.1324H228.74L226.619 43.9161L226.354 47.1324H224.498L224.985 41.2719Z" fill="#407BFF"/>
<path d="M231.766 41.2719H233.828L234.915 45.4865L236.684 41.2719H238.687L235.832 47.1324H233.693L231.772 41.2719H231.766Z" fill="#407BFF"/>
<path d="M238.529 44.2075C238.611 43.2523 238.958 42.5076 239.586 41.9734C240.209 41.4391 241.043 41.1747 242.077 41.1747C243.112 41.1747 243.934 41.4391 244.469 41.9626C244.998 42.486 245.227 43.2199 245.15 44.1643C245.092 44.8497 244.921 45.4109 244.633 45.848C244.345 46.2851 243.958 46.6251 243.458 46.8733C242.959 47.1216 242.36 47.2403 241.654 47.2403C240.949 47.2403 240.35 47.1324 239.892 46.9219C239.439 46.7114 239.081 46.3769 238.828 45.9236C238.576 45.4703 238.476 44.8982 238.529 44.2129V44.2075ZM240.503 44.2129C240.456 44.8065 240.538 45.2274 240.755 45.4864C240.973 45.7455 241.29 45.875 241.701 45.875C242.113 45.875 242.465 45.7509 242.718 45.4972C242.971 45.2436 243.123 44.7903 243.182 44.1319C243.229 43.5815 243.141 43.1768 242.918 42.9231C242.694 42.6695 242.377 42.54 241.966 42.54C241.555 42.54 241.237 42.6695 240.979 42.9285C240.714 43.1876 240.562 43.6139 240.509 44.2129H240.503Z" fill="#407BFF"/>
<path d="M246.525 41.2719H248.499L248.012 47.1324H246.038L246.525 41.2719Z" fill="#407BFF"/>
<path d="M253.876 44.731L255.562 45.2113C255.409 45.6538 255.198 46.0261 254.922 46.3283C254.646 46.6251 254.316 46.8518 253.935 47.0029C253.553 47.154 253.077 47.2295 252.501 47.2295C251.808 47.2295 251.249 47.1378 250.826 46.9543C250.403 46.7708 250.051 46.4416 249.769 45.9776C249.487 45.5135 249.381 44.9145 249.44 44.1859C249.522 43.2146 249.863 42.4699 250.468 41.9518C251.073 41.4338 251.89 41.1693 252.918 41.1693C253.723 41.1693 254.34 41.3204 254.775 41.6172C255.21 41.914 255.515 42.3727 255.686 42.9933L253.917 43.3495C253.87 43.1714 253.817 43.0419 253.758 42.9556C253.658 42.8153 253.535 42.7127 253.382 42.6372C253.23 42.5616 253.053 42.5238 252.853 42.5238C252.407 42.5238 252.049 42.6911 251.784 43.0203C251.584 43.2632 251.461 43.6517 251.42 44.1752C251.367 44.8227 251.437 45.2706 251.631 45.5081C251.825 45.7509 252.119 45.8696 252.507 45.8696C252.895 45.8696 253.177 45.7725 253.388 45.5782C253.6 45.384 253.758 45.1033 253.876 44.731Z" fill="#407BFF"/>
<path d="M256.843 41.2719H262.125L262.019 42.5238H258.711L258.635 43.4574H261.702L261.602 44.65H258.535L258.441 45.8049H261.843L261.731 47.1324H256.355L256.843 41.2719Z" fill="#407BFF"/>
<path d="M277.772 54.6982H220.467L220.584 53.2357H277.895L277.772 54.6982Z" fill="#407BFF"/>
<path d="M277.772 54.6982H220.467L220.091 59.1664H277.402L277.772 54.6982Z" fill="#F0F0F0"/>
<path d="M277.031 63.6401H219.721L219.351 68.1083H276.655L277.031 63.6401Z" fill="#F0F0F0"/>
<path d="M276.285 72.5765H218.98L218.61 77.0448H275.915L276.285 72.5765Z" fill="#F0F0F0"/>
<path d="M275.545 81.5184H218.234L217.864 85.9867H275.175L275.545 81.5184Z" fill="#F0F0F0"/>
<path d="M274.681 91.9174H217.371L217.494 90.4549H274.805L274.681 91.9174Z" fill="#407BFF"/>
<path d="M268.124 27.4624H280.034L279.494 33.9867H267.584L268.124 27.4624Z" fill="#F0F0F0"/>
<path d="M151.341 68.9717L153.474 69.7596C154.249 70.0456 154.931 70.5151 155.448 71.1141L156.423 72.2474C157.07 72.9975 157.04 74.066 156.353 74.7891L155.313 75.8738C154.519 76.7048 153.133 76.7804 152.24 76.041L151.247 75.2208C151.247 75.2208 148.191 73.2511 147.292 70.6446L147.88 70.105C148.838 69.2254 150.113 68.8044 151.341 68.9717Z" fill="#FFB573"/>
<path d="M157.169 50.0411L156.476 50.462L155.706 50.9477C155.195 51.2823 154.678 51.6276 154.179 51.9784C153.18 52.6907 152.199 53.4354 151.294 54.2179C149.466 55.7775 147.88 57.4881 146.752 59.3013C146.605 59.528 146.476 59.7546 146.352 59.9867L146.258 60.1594C146.276 60.1162 146.311 59.9921 146.323 59.9381C146.346 59.7924 146.346 59.7115 146.335 59.6629C146.276 59.5064 146.276 59.9111 146.405 60.3105C146.67 61.1631 147.21 62.2532 147.81 63.3001C149.02 65.4263 150.536 67.6118 151.969 69.765L152.005 69.819C152.598 70.7148 152.287 71.8804 151.317 72.4255C150.565 72.8464 149.637 72.7708 148.979 72.3067C147.768 71.4433 146.687 70.5583 145.618 69.5977C144.549 68.6426 143.532 67.628 142.557 66.5272C141.593 65.4047 140.647 64.2499 139.854 62.6795C139.654 62.2802 139.466 61.8539 139.302 61.352C139.143 60.8555 139.008 60.2727 138.996 59.5334C138.996 59.161 139.025 58.7563 139.137 58.2922C139.184 58.0817 139.284 57.8011 139.36 57.6069L139.472 57.3316C139.619 56.9593 139.783 56.5923 139.954 56.2362C141.335 53.3653 143.338 50.9369 145.553 48.8485C146.67 47.8016 147.845 46.841 149.085 45.9506C149.701 45.5081 150.336 45.0764 150.988 44.6716C151.317 44.4666 151.646 44.2615 151.987 44.0726L152.51 43.7812L153.103 43.4628C155.066 42.4213 157.581 43.0365 158.715 44.8443C159.808 46.582 159.226 48.7837 157.428 49.8738L157.163 50.0303L157.169 50.0411Z" fill="#FFB573"/>
<path d="M157.24 41.4769C153.808 41.4931 150.048 42.8422 145.23 48.3304C145.23 51.606 152.757 55.9609 152.757 55.9609C152.757 55.9609 165.095 41.4392 157.24 41.4769Z" fill="#263238"/>
<path d="M131.745 171.202C131.687 171.202 131.628 171.191 131.563 171.175C130.852 170.943 130.183 169.281 130.135 168.358C130.135 168.298 130.171 168.244 130.23 168.217C130.288 168.19 130.359 168.196 130.406 168.234C130.482 168.288 132.251 169.62 132.339 170.516C132.356 170.705 132.304 170.872 132.174 171.002C132.051 171.131 131.898 171.202 131.74 171.202H131.745ZM130.517 168.714C130.676 169.594 131.222 170.738 131.675 170.883C131.74 170.905 131.822 170.91 131.928 170.797C131.992 170.727 132.022 170.646 132.01 170.538C131.963 170.009 131.087 169.189 130.512 168.708L130.517 168.714Z" fill="#263238"/>
<path d="M132.85 169.221C132.027 169.221 130.84 168.854 130.212 168.476C130.159 168.444 130.129 168.385 130.141 168.325C130.153 168.266 130.2 168.217 130.265 168.201C130.359 168.18 132.574 167.645 133.414 168.115C133.59 168.212 133.708 168.352 133.749 168.52C133.808 168.757 133.731 168.951 133.537 169.075C133.379 169.178 133.138 169.221 132.856 169.221H132.85ZM130.752 168.406C131.616 168.806 132.95 169.075 133.343 168.827C133.402 168.789 133.455 168.736 133.42 168.59C133.396 168.503 133.338 168.433 133.238 168.374C132.744 168.099 131.504 168.261 130.752 168.406Z" fill="#263238"/>
<path d="M124.054 167.991C125.047 166.879 126.722 165.395 128.437 162.276C128.437 162.276 133.884 163.506 132.815 164.953C130.876 167.57 129.924 172.95 132.427 175.832C133.855 177.478 131.599 177.747 130.106 177.046C127.732 175.924 127.832 175.508 126.598 173.657C125.541 172.07 125.129 171.45 123.678 170.775C122.468 170.209 123.055 169.108 124.054 167.991Z" fill="#407BFF"/>
<path d="M170.295 74.0066C170.295 74.0066 162.387 109.407 156.605 124.528C150.53 140.404 133.761 164.909 133.115 165.956C130.729 165.374 128.602 164.607 127.186 163.334C127.186 163.334 135.059 136.756 142.739 119.515C145.653 83.5259 152.075 74.0066 152.075 74.0066H170.301H170.295Z" fill="#263238"/>
<path opacity="0.2" d="M158.227 92.9481C157.869 99.7961 157.622 109.213 157.974 120.675C160.389 113.53 163.016 103.843 165.225 95.1498C163.75 93.342 161.459 92.4732 158.227 92.9481Z" fill="black"/>
<path d="M158.703 30.5977C159.531 33.6737 160.342 38.6978 159.02 41.369C159.02 41.369 163.967 41.5687 170.289 46.2042C173.268 42.1893 169.819 41.4014 169.819 41.4014C167.193 40.8348 167.322 37.6185 167.322 35.3304L158.697 30.5923L158.703 30.5977Z" fill="#FFB573"/>
<path d="M157.463 42.7667C154.995 42.5184 156.699 38.2121 157.986 38.6276C161.229 39.6853 168.498 38.5089 170.748 39.6475C172.998 40.7862 172.428 43.1228 172.428 43.1228C172.428 43.1228 160.125 43.0311 157.463 42.7613V42.7667Z" fill="#407BFF"/>
<path opacity="0.7" d="M157.463 42.7667C154.995 42.5184 156.699 38.2121 157.986 38.6276C161.229 39.6853 168.498 38.5089 170.748 39.6475C172.998 40.7862 172.428 43.1228 172.428 43.1228C172.428 43.1228 160.125 43.0311 157.463 42.7613V42.7667Z" fill="white"/>
<path d="M171.858 25.1635C171.94 25.5737 172.24 25.8705 172.534 25.8219C172.828 25.7733 172.998 25.401 172.922 24.9908C172.839 24.5807 172.54 24.2839 172.246 24.3325C171.952 24.3811 171.782 24.7534 171.858 25.1635Z" fill="#263238"/>
<path d="M172.123 24.3757L173.145 23.917C173.145 23.917 172.739 24.7804 172.123 24.3757Z" fill="#263238"/>
<path d="M172.458 21.8717C172.487 21.8178 172.499 21.753 172.481 21.6882C172.446 21.5587 172.299 21.4778 172.152 21.5156C170.724 21.8663 170.325 22.9402 170.307 22.9834C170.26 23.1129 170.337 23.2532 170.478 23.291C170.619 23.3342 170.771 23.264 170.813 23.1345C170.83 23.0913 171.148 22.2657 172.287 21.9851C172.364 21.9689 172.417 21.9203 172.452 21.8663L172.458 21.8717Z" fill="#263238"/>
<path d="M172.387 26.1619C172.387 26.1619 173.356 27.878 174.302 28.6658C173.762 29.2379 172.716 29.0975 172.716 29.0975L172.381 26.1619H172.387Z" fill="#ED893E"/>
<path d="M156.523 24.9531C157.833 29.961 158.268 32.1034 161.5 34.2565C166.359 37.4944 172.634 34.9419 172.951 29.6804C173.233 24.9477 171.048 17.5546 165.372 16.3997C159.778 15.2611 155.219 19.9452 156.523 24.9531Z" fill="#FFB573"/>
<path d="M167.087 25.8705C170.295 21.9743 172.393 18.8281 170.807 15.3798C169.485 12.4981 165.824 13.34 165.313 14.7808C155.583 14.0199 152.087 17.2578 154.096 22.611C155.377 26.0216 150.406 24.2569 151.617 28.5903C152.545 31.9145 149.272 33.1826 150.935 35.093C153.333 37.8505 158.28 34.2511 163.926 36.3234C168.544 38.0178 175.489 35.4545 167.093 25.8759L167.087 25.8705Z" fill="#263238"/>
<path d="M166.564 26.6583C167.199 27.5757 168.151 28.0884 169.003 28.2017C170.278 28.3744 170.718 27.0577 170.196 25.8381C169.725 24.7372 168.492 23.3288 167.293 23.7173C166.106 24.1058 165.842 25.6114 166.564 26.6583Z" fill="#FFB573"/>
<path d="M168.462 174.499C167.646 174.499 166.306 173.905 165.683 173.387C165.636 173.349 165.618 173.285 165.636 173.225C165.654 173.166 165.712 173.128 165.777 173.123C165.871 173.112 168.151 172.885 168.903 173.457C169.062 173.581 169.156 173.733 169.167 173.905C169.185 174.148 169.085 174.332 168.874 174.429C168.762 174.477 168.627 174.499 168.468 174.499H168.462ZM166.224 173.393C167.017 173.9 168.292 174.348 168.721 174.153C168.785 174.126 168.844 174.078 168.832 173.927C168.827 173.835 168.78 173.76 168.686 173.689C168.245 173.355 166.987 173.344 166.218 173.387L166.224 173.393Z" fill="#263238"/>
<path d="M165.795 173.425C165.742 173.425 165.695 173.403 165.659 173.36C165.618 173.312 165.618 173.247 165.648 173.193C165.695 173.117 166.835 171.293 167.786 171.072C167.986 171.024 168.174 171.045 168.333 171.137C168.556 171.266 168.656 171.45 168.615 171.666C168.486 172.351 166.805 173.231 165.824 173.42C165.812 173.42 165.8 173.42 165.789 173.42L165.795 173.425ZM167.986 171.358C167.951 171.358 167.91 171.358 167.869 171.374C167.31 171.504 166.57 172.432 166.153 173.026C167.07 172.734 168.215 172.054 168.298 171.623C168.309 171.558 168.298 171.482 168.168 171.407C168.115 171.374 168.057 171.364 167.992 171.364L167.986 171.358Z" fill="#263238"/>
<path d="M172.828 176.398C168.068 176.058 164.86 173.058 165.201 169.88C165.389 168.126 159.284 167.969 159.284 167.969C160.248 173.403 159.038 174.18 158.638 175.584C158.238 176.992 158.338 178.541 159.602 178.568C161.112 178.6 161.817 178.336 163.697 178.406C165.894 178.487 168.268 178.562 172.17 178.568C173.732 178.568 174.943 176.544 172.828 176.393V176.398Z" fill="#407BFF"/>
<path d="M178.521 74.0066C178.521 74.0066 178.104 100.816 175.801 118.435C173.498 136.055 165.577 170.613 165.577 170.613C163.286 171.024 161.141 171.088 159.249 170.559C159.249 170.559 156.746 143.561 160.953 117.475C157.863 90.1365 155.929 74.0012 155.929 74.0012H178.521V74.0066Z" fill="#263238"/>
<path d="M179.602 49.2046C179.502 51.2769 183.063 56.0635 178.668 58.8426C179.491 60.5263 180.184 71.9614 178.521 74.0066C176.094 75.6417 162.962 75.3233 152.069 74.0066C151.611 69.8729 154.084 61.3088 151.053 47.9527C150.347 44.8551 152.721 41.8817 156.147 41.5687C157.063 41.4823 158.033 41.4122 159.026 41.369C162.886 41.1963 166.047 41.083 169.443 41.369C170.565 41.4608 171.729 41.5957 172.839 41.736C176.846 42.254 179.778 45.4919 179.602 49.2046Z" fill="#407BFF"/>
<g opacity="0.3">
<path d="M151.329 47.2349C151.246 47.2727 151.164 47.3159 151.082 47.3536C151.006 47.3914 150.982 47.4724 151.023 47.5425C151.064 47.6127 151.152 47.6343 151.229 47.5965C151.317 47.5533 151.405 47.5047 151.493 47.4616C152.657 47.8555 153.926 48.7513 154.648 48.8431C153.485 47.8987 152.645 47.2187 151.728 47.3429C152.004 47.1972 152.275 47.0407 152.545 46.8788C153.614 47.2457 154.778 48.066 155.442 48.1469C154.361 47.2673 153.585 46.6413 152.733 46.7654C152.933 46.6413 153.133 46.5172 153.332 46.3877C153.444 46.3175 153.556 46.242 153.667 46.1664C154.631 46.5496 155.659 47.3698 156.264 47.4778C155.295 46.5928 154.607 45.9668 153.785 46.0909C154.043 45.9182 154.296 45.7347 154.543 45.5512C155.43 45.9074 156.37 46.6521 156.928 46.7546C156.035 45.9398 155.401 45.3678 154.648 45.4757C154.86 45.3192 155.077 45.1573 155.283 44.99C155.336 44.9522 155.383 44.9091 155.436 44.8713C156.217 45.249 156.993 45.9937 157.504 46.1287C156.764 45.3138 156.247 44.7472 155.471 44.8443C155.671 44.6824 155.871 44.5205 156.07 44.3586C156.793 44.704 157.504 45.3893 157.974 45.5135C157.292 44.7634 156.822 44.2453 156.106 44.3262C156.311 44.1536 156.523 43.9755 156.723 43.792C157.351 44.1482 157.951 44.7957 158.368 44.9307C157.804 44.2237 157.404 43.7272 156.764 43.7542C156.875 43.6571 156.987 43.5546 157.093 43.4574C157.157 43.3981 157.216 43.3387 157.281 43.2793C157.862 43.6085 158.415 44.2021 158.797 44.3262C158.274 43.6733 157.909 43.2146 157.316 43.2416C157.486 43.0797 157.657 42.9178 157.821 42.7505C158.356 43.0095 158.85 43.5168 159.208 43.6085C158.738 43.0581 158.415 42.6749 157.845 42.7235C157.874 42.6911 157.909 42.6642 157.939 42.6318C158.056 42.5077 158.18 42.3835 158.291 42.254C158.773 42.4969 159.226 42.9502 159.555 43.0365C159.132 42.5346 158.832 42.1839 158.327 42.2216C158.462 42.0705 158.597 41.914 158.714 41.7468C158.726 41.7252 158.726 41.6982 158.703 41.6874C158.679 41.6712 158.65 41.6766 158.632 41.6982C158.515 41.8493 158.391 41.995 158.262 42.1353C158.309 41.8925 158.215 41.6712 158.05 41.423C157.986 41.423 157.915 41.4284 157.851 41.4338C157.956 41.682 158.097 41.9572 158.174 42.2324C158.068 42.3404 157.962 42.4483 157.857 42.5562C157.833 42.5832 157.804 42.6048 157.78 42.6318C157.892 42.2432 157.669 41.9033 157.328 41.4661C157.292 41.4661 157.257 41.4715 157.222 41.4769C157.316 41.8115 157.586 42.2648 157.704 42.7073C157.551 42.8584 157.392 43.0041 157.234 43.1498C157.381 42.6534 157.01 42.2162 156.482 41.5957C156.505 41.968 156.975 42.6156 157.163 43.2092C157.11 43.2578 157.052 43.3117 156.999 43.3603C156.893 43.452 156.787 43.5438 156.676 43.6409C156.822 43.1067 156.423 42.6372 155.859 41.968C155.888 42.3673 156.394 43.0635 156.599 43.7111C156.411 43.8676 156.223 44.0241 156.035 44.1805C156.158 43.6409 155.771 43.1175 155.23 42.3997C155.23 42.826 155.706 43.5869 155.9 44.2885C155.747 44.4126 155.589 44.5313 155.436 44.65C155.571 44.0672 155.148 43.4952 154.566 42.7127C154.566 43.1768 155.083 43.9971 155.295 44.758C155.254 44.7903 155.213 44.8227 155.171 44.8497C154.96 45.0116 154.742 45.1681 154.519 45.3246C154.69 44.7256 154.284 44.051 153.732 43.1336C153.691 43.6301 154.173 44.6015 154.331 45.4595C154.084 45.6322 153.838 45.7995 153.585 45.9614C153.867 45.2868 153.409 44.5259 152.774 43.4628C152.727 44.0187 153.279 45.1141 153.432 46.0585C153.356 46.1071 153.285 46.1502 153.209 46.1988C152.98 46.3445 152.745 46.4794 152.504 46.6143C152.833 45.929 152.439 45.1195 151.858 44.0133C151.828 44.051 151.799 44.0888 151.775 44.1266C151.822 44.7742 152.228 45.8157 152.322 46.7169C152.057 46.8626 151.793 47.0083 151.523 47.1432C151.828 46.5712 151.658 45.9236 151.276 45.1141C151.188 45.3408 151.123 45.5782 151.07 45.8211C151.194 46.2852 151.311 46.7762 151.352 47.2295L151.329 47.2349Z" fill="#263238"/>
<path d="M166.341 43.4952C165.454 42.9771 164.584 42.022 164.003 41.8223C164.808 42.8368 165.377 43.5546 166.212 43.5546C165.93 43.6895 165.648 43.8298 165.366 43.9755C164.549 43.4952 163.75 42.621 163.221 42.4375C163.961 43.3711 164.49 44.0295 165.254 44.0348C165.013 44.159 164.778 44.2885 164.543 44.418C164.484 44.4504 164.431 44.4828 164.373 44.5151C163.668 44.0295 163.027 43.1822 162.545 42.9718C163.133 43.8837 163.544 44.5151 164.332 44.5367C164.108 44.6662 163.879 44.7957 163.656 44.9307C163.004 44.4828 162.422 43.7057 161.975 43.5114C162.516 44.3478 162.898 44.9307 163.615 44.9576C163.38 45.0979 163.145 45.2437 162.916 45.3948C162.357 44.9522 161.876 44.2237 161.488 44.0295C161.923 44.8119 162.228 45.357 162.869 45.4271C162.739 45.5081 162.616 45.589 162.493 45.6754C162.422 45.7239 162.351 45.7725 162.275 45.8211C161.758 45.4163 161.317 44.7418 160.959 44.5637C161.359 45.2868 161.646 45.7887 162.234 45.848C162.034 45.983 161.84 46.1179 161.652 46.2636C161.171 45.929 160.765 45.357 160.43 45.2113C160.794 45.8265 161.053 46.2528 161.623 46.2798C161.588 46.3067 161.552 46.3283 161.517 46.3553C161.376 46.4632 161.241 46.5658 161.1 46.6737C160.665 46.3607 160.295 45.8481 159.99 45.7185C160.324 46.2744 160.559 46.6629 161.065 46.7061C160.9 46.8356 160.747 46.9705 160.595 47.1216C160.577 47.1378 160.577 47.1648 160.595 47.1864C160.612 47.2026 160.648 47.2026 160.665 47.1864C160.806 47.0515 160.953 46.9273 161.106 46.8086C160.965 47.1756 161.17 47.5479 161.453 48.0552C161.5 47.7584 161.259 47.2187 161.212 46.7277C161.335 46.6359 161.458 46.5442 161.582 46.4525C161.611 46.4309 161.641 46.4093 161.67 46.3877C161.47 46.8032 161.699 47.2187 162.022 47.7962C162.075 47.467 161.805 46.8626 161.758 46.3229C161.934 46.1988 162.116 46.0747 162.299 45.956C162.064 46.4255 162.357 46.9111 162.769 47.6019C162.81 47.2295 162.451 46.5226 162.375 45.9074C162.44 45.8642 162.504 45.8211 162.563 45.7833C162.686 45.7077 162.804 45.6322 162.927 45.5566C162.686 46.0585 163.004 46.5874 163.444 47.3267C163.485 46.9273 163.109 46.1664 163.015 45.4973C163.227 45.3678 163.438 45.2436 163.656 45.1141C163.444 45.6268 163.738 46.1988 164.144 46.9867C164.214 46.5658 163.879 45.7455 163.809 45.0278C163.979 44.9307 164.155 44.8335 164.332 44.7364C164.097 45.2922 164.414 45.9182 164.86 46.7762C164.937 46.3175 164.572 45.4325 164.496 44.65C164.543 44.6231 164.59 44.6015 164.631 44.5745C164.872 44.445 165.113 44.3209 165.354 44.2021C165.084 44.7634 165.366 45.4919 165.753 46.4794C165.883 45.9938 165.571 44.963 165.565 44.0942C165.836 43.9593 166.112 43.8298 166.388 43.7057C165.994 44.3317 166.312 45.1519 166.758 46.2906C166.899 45.7509 166.547 44.5907 166.553 43.6301C166.635 43.5923 166.711 43.56 166.793 43.5222C167.046 43.4143 167.305 43.3117 167.563 43.2092C167.105 43.8676 167.393 44.7688 167.804 46.0261C167.998 45.4487 167.692 44.1698 167.763 43.1336C168.045 43.0257 168.333 42.9232 168.621 42.8314C168.068 43.5492 168.386 44.5421 168.838 45.9398C169.05 45.3084 168.709 43.9053 168.797 42.7721C168.885 42.7451 168.973 42.7127 169.061 42.6857C169.138 42.6588 169.185 42.5832 169.155 42.5077C169.126 42.4375 169.044 42.3943 168.962 42.4213C168.868 42.4537 168.774 42.4861 168.674 42.5185C167.992 42.1677 167.311 41.6173 166.723 41.2071C166.564 41.2071 166.412 41.2017 166.253 41.1963C167.017 42.0274 167.645 42.594 168.427 42.6048C168.127 42.7127 167.833 42.8261 167.54 42.9448C166.547 42.4267 165.542 41.45 164.902 41.2719C165.818 42.2972 166.476 43.0257 167.34 43.0257C167.117 43.1175 166.899 43.2092 166.682 43.3063C166.558 43.3603 166.435 43.4197 166.312 43.479L166.341 43.4952Z" fill="#263238"/>
<path d="M159.002 53.5811C158.356 52.9336 157.898 52.4856 157.269 52.5774C157.369 52.4695 157.463 52.3561 157.563 52.2482C157.616 52.1834 157.674 52.1187 157.727 52.0539C158.344 52.3184 158.967 52.858 159.361 52.9389C158.761 52.3399 158.344 51.9244 157.763 52.0108C157.915 51.8327 158.062 51.6546 158.203 51.4711C158.761 51.6762 159.32 52.1241 159.684 52.1834C159.149 51.6816 158.779 51.3362 158.227 51.4441C158.256 51.4118 158.28 51.3794 158.309 51.3416C158.415 51.2067 158.515 51.0718 158.615 50.9315C159.126 51.1257 159.631 51.5305 159.96 51.579C159.478 51.1257 159.137 50.8074 158.638 50.8937C158.756 50.7264 158.867 50.5591 158.967 50.381C158.979 50.3595 158.967 50.3325 158.949 50.3217C158.926 50.3109 158.897 50.3217 158.885 50.3379C158.791 50.4998 158.679 50.6563 158.568 50.8074C158.597 50.4188 158.291 50.1112 157.868 49.6903C157.909 49.9871 158.297 50.4512 158.485 50.9153C158.391 51.034 158.303 51.1527 158.209 51.2715C158.186 51.2984 158.162 51.3254 158.139 51.3524C158.209 50.9045 157.868 50.5591 157.387 50.0788C157.428 50.408 157.868 50.9207 158.068 51.4333C157.933 51.5952 157.792 51.7571 157.651 51.919C157.739 51.4118 157.316 51.0124 156.717 50.4512C156.787 50.8182 157.334 51.4118 157.592 51.9892C157.545 52.0431 157.492 52.1025 157.445 52.1565C157.351 52.259 157.257 52.3615 157.157 52.4641C157.24 51.919 156.787 51.4873 156.141 50.8883C156.217 51.2822 156.805 51.9244 157.087 52.545C156.922 52.7231 156.752 52.8958 156.582 53.0685C156.64 52.5234 156.188 52.0431 155.565 51.3794C155.618 51.8057 156.182 52.5072 156.458 53.1872C156.323 53.3275 156.182 53.4624 156.041 53.5973C156.106 53.0037 155.618 52.4803 154.942 51.7625C155.001 52.2212 155.612 52.9875 155.912 53.7214C155.877 53.7592 155.835 53.7916 155.8 53.8294C155.606 54.0128 155.412 54.1909 155.213 54.3636C155.312 53.7538 154.825 53.1224 154.161 52.2698C154.178 52.7717 154.778 53.6837 155.036 54.5201C154.813 54.7144 154.584 54.9086 154.355 55.0921C154.555 54.3906 154.008 53.6837 153.244 52.6961C153.262 53.2519 153.943 54.2827 154.214 55.2054C154.149 55.2594 154.079 55.3134 154.014 55.3673C153.802 55.5346 153.585 55.6965 153.368 55.853C153.62 55.1083 153.074 54.3042 152.316 53.198C152.298 53.8024 152.968 54.9572 153.197 55.9771C152.956 56.1498 152.71 56.3171 152.457 56.479C152.639 56.0095 152.522 55.5184 152.234 54.9572C152.304 55.5994 152.357 56.2254 152.404 56.8406C152.433 56.8244 152.457 56.8028 152.486 56.7866C153.691 57.0618 155.06 57.8173 155.788 57.8335C154.519 57.0132 153.603 56.425 152.704 56.6409C152.962 56.4628 153.215 56.2847 153.462 56.0959C154.572 56.3495 155.824 57.0456 156.493 57.0618C155.312 56.3009 154.466 55.7559 153.632 55.9663C153.82 55.826 154.002 55.6803 154.184 55.5292C154.284 55.4429 154.39 55.3619 154.49 55.2756C155.495 55.5616 156.617 56.2631 157.228 56.3117C156.159 55.5292 155.395 54.9842 154.596 55.1893C154.831 54.9896 155.06 54.7845 155.283 54.5741C156.206 54.8385 157.234 55.4861 157.798 55.5292C156.811 54.8115 156.112 54.3042 155.377 54.4931C155.571 54.315 155.765 54.1316 155.953 53.9481C156 53.9049 156.041 53.8563 156.088 53.8132C156.911 54.1046 157.774 54.7683 158.297 54.8493C157.463 54.1154 156.881 53.6081 156.123 53.7808C156.305 53.6027 156.482 53.4192 156.658 53.2358C157.416 53.5056 158.209 54.1154 158.691 54.1909C157.927 53.5164 157.392 53.0469 156.693 53.2034C156.881 53.0091 157.063 52.8094 157.24 52.6098C157.909 52.8958 158.585 53.4786 159.014 53.5703L159.002 53.5811Z" fill="#263238"/>
<path d="M169.232 53.1872C168.809 53.3599 168.239 54.0614 167.61 54.4985C167.428 54.4176 167.246 54.3366 167.064 54.2503C167.704 54.1316 168.104 53.5487 168.656 52.7447C168.198 52.9336 167.575 53.6944 166.899 54.1693C166.852 54.1477 166.805 54.1262 166.758 54.1046C166.511 53.9859 166.27 53.8671 166.03 53.743C166.693 53.6513 167.211 53.0415 167.904 52.2104C167.387 52.3723 166.611 53.1656 165.818 53.6351C165.548 53.4948 165.283 53.3545 165.019 53.2034C165.806 53.171 166.388 52.4856 167.193 51.5251C166.617 51.7032 165.748 52.6044 164.86 53.1116C164.784 53.0685 164.708 53.0253 164.631 52.9821C164.396 52.8418 164.161 52.7015 163.932 52.5558C164.784 52.5558 165.46 51.8489 166.394 50.8559C165.759 51.0178 164.749 51.9406 163.756 52.4425C163.503 52.2806 163.256 52.1133 163.015 51.9406C163.973 51.9838 164.713 51.2013 165.753 50.1004C165.06 50.2785 163.955 51.293 162.868 51.8327C162.798 51.7787 162.722 51.7248 162.651 51.6708C162.586 51.6222 162.492 51.633 162.44 51.6924C162.387 51.7517 162.398 51.8381 162.463 51.8866C162.545 51.946 162.628 52 162.704 52.0539C162.774 53.1926 162.381 54.6172 162.575 55.2594C163.056 53.8995 163.403 52.9282 162.915 52.1996C163.174 52.3723 163.438 52.5396 163.703 52.7069C163.762 53.7538 163.403 55.0597 163.585 55.6533C164.032 54.396 164.349 53.4948 163.891 52.8202C164.096 52.9443 164.296 53.0631 164.502 53.1764C164.619 53.2411 164.737 53.3059 164.854 53.3707C164.854 54.3366 164.443 55.5238 164.572 56.0797C165.072 54.9086 165.424 54.083 164.972 53.4354C165.248 53.5811 165.53 53.7268 165.812 53.8617C165.812 54.7521 165.436 55.8422 165.554 56.3495C166.012 55.2756 166.335 54.5147 165.924 53.9157C166.165 54.0344 166.411 54.1477 166.658 54.2611C166.717 54.2881 166.782 54.315 166.84 54.342C166.776 55.1515 166.335 56.1013 166.406 56.5869C166.929 55.6426 167.287 54.9842 166.887 54.3636C167.128 54.4715 167.369 54.5741 167.61 54.6712C167.545 55.4159 167.146 56.2901 167.211 56.7326C167.692 55.8638 168.021 55.2594 167.657 54.6874C167.916 54.7953 168.174 54.8979 168.433 54.995C168.327 55.6641 167.916 56.4304 167.951 56.8352C168.433 56.0797 168.773 55.5454 168.491 55.0166C168.632 55.0705 168.779 55.1245 168.92 55.1785C169.003 55.2108 169.091 55.2378 169.173 55.2648C169.079 55.8854 168.697 56.5869 168.726 56.9593C169.173 56.2578 169.484 55.7721 169.226 55.281C169.455 55.3619 169.684 55.4375 169.919 55.513C169.866 56.0635 169.567 56.6841 169.608 57.024C169.972 56.4088 170.225 55.9825 169.949 55.5238C169.99 55.5346 170.037 55.5508 170.078 55.567C170.248 55.621 170.425 55.6695 170.595 55.7181C170.542 56.2254 170.272 56.7866 170.313 57.0942C170.648 56.5384 170.877 56.1444 170.642 55.7343C170.848 55.7883 171.059 55.8368 171.271 55.8746C171.294 55.8746 171.323 55.8638 171.329 55.8422C171.329 55.8206 171.318 55.7937 171.294 55.7883C171.1 55.7505 170.906 55.7019 170.712 55.648C171.124 55.5616 171.353 55.2 171.67 54.709C171.37 54.8331 171.006 55.308 170.577 55.6102C170.425 55.567 170.278 55.5184 170.125 55.4699C170.09 55.4591 170.054 55.4483 170.019 55.4321C170.507 55.3673 170.765 54.9626 171.124 54.4014C170.795 54.5363 170.383 55.0705 169.913 55.3943C169.702 55.3242 169.496 55.2486 169.285 55.1731C169.837 55.1029 170.131 54.6118 170.542 53.9211C170.184 54.0884 169.725 54.7414 169.197 55.1407C169.126 55.1137 169.05 55.0867 168.979 55.0597C168.844 55.0058 168.709 54.9518 168.574 54.8979C169.161 54.8115 169.479 54.2881 169.919 53.5433C169.531 53.7268 169.038 54.4284 168.474 54.8547C168.239 54.7629 168.01 54.6658 167.78 54.5633C168.368 54.4553 168.738 53.9157 169.244 53.1818L169.232 53.1872Z" fill="#263238"/>
<path d="M165.842 60.386C166.365 60.5479 166.893 60.9203 167.234 60.958C166.723 60.5317 166.359 60.2349 165.865 60.3536C165.971 60.1809 166.071 60.0029 166.159 59.8194C166.171 59.7978 166.159 59.7708 166.135 59.76C166.112 59.7492 166.082 59.76 166.071 59.7816C165.988 59.9489 165.889 60.1108 165.789 60.2727C165.789 59.8841 165.466 59.5927 165.013 59.1988C165.072 59.4956 165.495 59.9327 165.712 60.3806C165.63 60.5047 165.542 60.6289 165.46 60.753C165.442 60.78 165.419 60.8123 165.395 60.8393C165.436 60.386 165.072 60.0622 164.555 59.6143C164.619 59.9381 165.095 60.4292 165.33 60.9257C165.207 61.0983 165.078 61.2656 164.948 61.4329C165.001 60.9203 164.549 60.5479 163.914 60.0191C164.008 60.3806 164.596 60.9418 164.896 61.5031C164.849 61.5624 164.807 61.6218 164.76 61.6758C164.672 61.7837 164.584 61.8916 164.496 61.9995C164.543 61.4545 164.055 61.0498 163.374 60.4832C163.48 60.8717 164.108 61.4761 164.431 62.0805C164.279 62.264 164.12 62.4528 163.961 62.6309C163.979 62.0805 163.497 61.6272 162.833 61.0066C162.916 61.4275 163.527 62.0967 163.85 62.7604C163.72 62.9061 163.591 63.0518 163.462 63.1922C163.485 62.5932 162.963 62.1021 162.24 61.4221C162.334 61.8754 162.992 62.6039 163.344 63.3217C163.309 63.3594 163.274 63.3972 163.239 63.435C163.057 63.6293 162.874 63.8181 162.686 64.007C162.745 63.3918 162.216 62.7928 161.494 61.978C161.547 62.4744 162.205 63.354 162.522 64.1743C162.31 64.3848 162.099 64.5844 161.881 64.7895C162.034 64.0772 161.441 63.4026 160.606 62.4582C160.665 63.0141 161.417 64.0016 161.746 64.9082C161.682 64.9676 161.623 65.0269 161.558 65.0809C161.358 65.259 161.153 65.4317 160.947 65.6044C161.147 64.8435 160.548 64.0772 159.713 63.0141C159.737 63.6185 160.483 64.7355 160.783 65.7339C160.554 65.9227 160.319 66.1008 160.078 66.2789C160.342 65.4317 159.69 64.5898 158.761 63.408C158.791 64.0664 159.608 65.2914 159.931 66.3868C159.86 66.4408 159.784 66.4948 159.713 66.5433C159.649 66.5919 159.637 66.6782 159.69 66.7376C159.743 66.797 159.837 66.8078 159.901 66.7592C159.984 66.6998 160.06 66.6405 160.136 66.5811C161.358 66.7862 162.775 67.4607 163.503 67.4391C162.175 66.6944 161.223 66.1602 160.342 66.43C160.589 66.2411 160.824 66.0415 161.059 65.8418C162.181 66.0307 163.48 66.6513 164.149 66.6297C162.921 65.9389 162.034 65.4479 161.217 65.7069C161.394 65.5558 161.564 65.3993 161.735 65.2428C161.829 65.1511 161.928 65.0647 162.022 64.973C163.045 65.1996 164.208 65.8364 164.831 65.8472C163.709 65.1295 162.91 64.6276 162.122 64.8758C162.34 64.66 162.557 64.4441 162.769 64.2229C163.709 64.4333 164.778 65.0161 165.342 65.0269C164.308 64.3686 163.579 63.9045 162.851 64.1311C163.033 63.9423 163.209 63.748 163.386 63.5537C163.427 63.5051 163.468 63.4566 163.509 63.408C164.349 63.6509 165.254 64.266 165.783 64.3146C164.901 63.6293 164.285 63.1544 163.538 63.3702C163.709 63.1814 163.873 62.9871 164.032 62.7982C164.807 63.0249 165.636 63.5861 166.124 63.6347C165.313 63.0033 164.749 62.5716 164.061 62.7658C164.232 62.5608 164.402 62.3503 164.567 62.1399C165.254 62.3881 165.965 62.9331 166.406 62.9979C165.712 62.3881 165.231 61.9672 164.602 62.0967C164.69 61.9834 164.784 61.8646 164.872 61.7513C164.925 61.6812 164.972 61.6164 165.025 61.5462C165.659 61.7729 166.318 62.2748 166.717 62.3341C166.077 61.7729 165.63 61.3844 165.054 61.5031C165.195 61.3142 165.33 61.1253 165.46 60.9364C166.035 61.1091 166.617 61.5247 166.987 61.5624C166.423 61.0929 166.03 60.7692 165.477 60.9095C165.501 60.8717 165.524 60.8393 165.548 60.8015C165.642 60.6612 165.736 60.5155 165.824 60.3752L165.842 60.386Z" fill="#263238"/>
<path d="M169.402 66.4084C169.52 66.2627 169.655 66.1224 169.79 65.9875C169.696 66.3653 169.954 66.7106 170.301 67.1855C170.313 66.8887 170.001 66.376 169.884 65.8904C169.996 65.7824 170.107 65.6799 170.219 65.5774C170.248 65.5504 170.272 65.5288 170.301 65.5072C170.154 65.9443 170.442 66.3275 170.842 66.8671C170.853 66.5379 170.501 65.9659 170.383 65.4371C170.542 65.2914 170.706 65.1511 170.871 65.0108C170.701 65.5018 171.059 65.9551 171.558 66.5919C171.547 66.2196 171.1 65.5612 170.936 64.9568C170.994 64.9082 171.047 64.8597 171.106 64.8111C171.218 64.7193 171.329 64.633 171.441 64.5413C171.271 65.0701 171.652 65.5558 172.193 66.2411C172.181 65.8418 171.705 65.1295 171.523 64.4765C171.717 64.3254 171.911 64.1743 172.105 64.0286C171.958 64.5628 172.328 65.0971 172.839 65.8364C172.851 65.4101 172.41 64.6384 172.246 63.9261C172.405 63.8073 172.563 63.694 172.722 63.5753C172.563 64.1581 172.963 64.7409 173.515 65.5396C173.527 65.0755 173.045 64.2391 172.869 63.4674C172.91 63.435 172.951 63.408 172.998 63.3756C173.215 63.2245 173.439 63.0734 173.668 62.9223C173.474 63.5105 173.85 64.2013 174.367 65.1349C174.432 64.6384 173.985 63.6509 173.862 62.7928C174.114 62.6309 174.367 62.469 174.626 62.3179C174.314 62.9871 174.743 63.7588 175.342 64.8381C175.413 64.2876 174.902 63.1706 174.784 62.2208C174.861 62.1776 174.937 62.1291 175.007 62.0859C175.242 61.951 175.483 61.8215 175.724 61.6919C175.354 62.3989 175.765 63.2623 176.335 64.4603C176.447 63.8667 175.971 62.6309 175.906 61.5948C176.177 61.4545 176.447 61.325 176.717 61.1955C176.265 61.9726 176.717 62.9223 177.352 64.2553C177.475 63.6023 176.952 62.2478 176.888 61.1199C176.97 61.0822 177.052 61.0444 177.14 61.0066C177.217 60.9742 177.246 60.8879 177.211 60.8177C177.176 60.7476 177.082 60.7206 177.005 60.753C176.911 60.7961 176.823 60.8393 176.735 60.8825C175.583 60.4508 174.355 59.5118 173.638 59.3985C174.767 60.3806 175.577 61.0875 176.5 60.9958C176.218 61.1361 175.942 61.2818 175.665 61.4329C174.608 61.0336 173.48 60.1756 172.822 60.0676C173.868 60.9796 174.62 61.6326 175.477 61.5355C175.272 61.6488 175.066 61.7675 174.861 61.8916C174.743 61.9618 174.631 62.0319 174.52 62.1021C173.568 61.6866 172.575 60.8339 171.976 60.7044C172.91 61.6218 173.574 62.2694 174.402 62.1722C174.138 62.3395 173.879 62.5122 173.621 62.6849C172.745 62.3017 171.84 61.5193 171.288 61.4005C172.146 62.2424 172.757 62.836 173.521 62.755C173.304 62.9061 173.08 63.0626 172.869 63.2191C172.816 63.2569 172.763 63.2947 172.71 63.3325C171.94 62.9277 171.194 62.1614 170.695 62.0049C171.4 62.8468 171.893 63.4242 172.675 63.3594C172.469 63.5105 172.264 63.667 172.058 63.8235C171.353 63.4512 170.665 62.7443 170.201 62.6039C170.847 63.3756 171.306 63.9099 172.017 63.8505C171.799 64.0178 171.588 64.1905 171.376 64.3632C170.759 63.9854 170.189 63.3217 169.778 63.1706C170.313 63.8991 170.695 64.4064 171.335 64.401C171.218 64.4981 171.106 64.5898 170.994 64.687C170.93 64.7409 170.865 64.8003 170.8 64.8597C170.236 64.5143 169.702 63.8991 169.326 63.7588C169.819 64.4279 170.172 64.8974 170.759 64.892C170.583 65.0485 170.407 65.205 170.236 65.3669C169.714 65.0863 169.238 64.5682 168.885 64.4603C169.332 65.0269 169.643 65.4209 170.213 65.3885C170.184 65.4209 170.148 65.4479 170.119 65.4748C169.996 65.5936 169.872 65.7177 169.749 65.8418C169.273 65.5828 168.838 65.1133 168.521 65.0162C168.926 65.5342 169.208 65.8904 169.719 65.8742C169.578 66.0199 169.437 66.1764 169.308 66.3383C169.29 66.3599 169.296 66.3868 169.32 66.3976C169.343 66.4138 169.373 66.4084 169.39 66.3868L169.402 66.4084Z" fill="#263238"/>
<path d="M162.516 74.093C162.751 73.8933 162.98 73.6882 163.203 73.4778C164.126 73.7422 165.154 74.3897 165.718 74.4329C164.731 73.7152 164.032 73.2079 163.291 73.3968C163.485 73.2187 163.679 73.0352 163.867 72.8518C163.914 72.8086 163.955 72.76 164.002 72.7169C164.825 73.0137 165.689 73.672 166.212 73.753C165.377 73.0191 164.796 72.5118 164.038 72.6845C164.22 72.5064 164.396 72.3229 164.572 72.1394C165.33 72.4093 166.124 73.0191 166.605 73.0946C165.842 72.4201 165.307 71.9506 164.608 72.1071C164.796 71.9128 164.978 71.7131 165.154 71.5135C165.824 71.7995 166.5 72.3823 166.928 72.474C166.282 71.8265 165.824 71.3785 165.195 71.4703C165.295 71.3624 165.389 71.249 165.489 71.1411C165.542 71.0763 165.601 71.0116 165.653 70.9468C166.27 71.2113 166.893 71.7509 167.287 71.8318C166.688 71.2328 166.27 70.8173 165.689 70.9037C165.842 70.7256 165.988 70.5475 166.129 70.364C166.688 70.5691 167.246 71.017 167.61 71.0763C167.075 70.5745 166.705 70.2291 166.153 70.337C166.182 70.3047 166.206 70.2723 166.235 70.2345C166.341 70.0996 166.441 69.9647 166.541 69.8244C167.052 70.0186 167.557 70.4234 167.886 70.4719C167.404 70.0186 167.064 69.7003 166.564 69.7866C166.682 69.6193 166.793 69.452 166.893 69.2739C166.905 69.2524 166.893 69.2254 166.876 69.2146C166.852 69.2038 166.823 69.2146 166.811 69.2308C166.717 69.3927 166.605 69.5492 166.494 69.7057C166.523 69.3171 166.218 69.0095 165.795 68.5886C165.836 68.8854 166.223 69.3495 166.411 69.8136C166.323 69.9323 166.229 70.051 166.135 70.1697C166.112 70.1967 166.088 70.2237 166.065 70.2507C166.135 69.8028 165.795 69.4574 165.313 68.9771C165.354 69.3063 165.795 69.819 165.994 70.3316C165.859 70.4935 165.718 70.6554 165.577 70.8173C165.665 70.3101 165.242 69.9107 164.643 69.3495C164.713 69.7164 165.26 70.3101 165.518 70.8875C165.471 70.9414 165.418 71.0008 165.371 71.0548C165.277 71.1573 165.183 71.2598 165.084 71.3624C165.166 70.8173 164.713 70.391 164.067 69.7866C164.143 70.1805 164.731 70.8227 165.013 71.4433C164.849 71.6214 164.678 71.7941 164.508 71.9668C164.567 71.4217 164.114 70.9414 163.491 70.2777C163.544 70.6986 164.108 71.4055 164.384 72.0855C164.249 72.2258 164.108 72.3607 163.967 72.4956C164.032 71.902 163.544 71.3785 162.868 70.6608C162.927 71.1195 163.538 71.8858 163.838 72.6197C163.803 72.6575 163.762 72.6899 163.726 72.7277C163.532 72.9111 163.338 73.0892 163.139 73.2619C163.239 72.6521 162.751 72.0207 162.087 71.1681C162.105 71.67 162.704 72.582 162.962 73.4184C162.739 73.6127 162.51 73.8069 162.281 73.9904C162.481 73.2889 161.934 72.5819 161.17 71.5944C161.188 72.1502 161.87 73.181 162.14 74.1037C162.075 74.1577 162.005 74.2117 161.94 74.2656C161.729 74.4329 161.511 74.5948 161.294 74.7513C161.546 74.0066 161 73.2025 160.242 72.0963C160.224 72.6953 160.877 73.8285 161.112 74.8377C161.264 74.8484 161.411 74.8592 161.564 74.8646C161.746 74.7243 161.928 74.584 162.105 74.4383C162.21 74.3574 162.31 74.271 162.41 74.1847C163.103 74.379 163.844 74.7675 164.443 75.0157C164.59 75.0211 164.743 75.0265 164.89 75.0319C163.955 74.3574 163.256 73.9095 162.516 74.0983V74.093Z" fill="#263238"/>
<path d="M159.266 72.4362C159.249 72.9597 159.707 73.8609 160.018 74.7621C160.165 74.7729 160.318 74.7837 160.465 74.7945C160.418 74.1253 159.919 73.386 159.266 72.4362Z" fill="#263238"/>
<path d="M161.599 74.8644C161.893 74.8805 162.193 74.8966 162.487 74.9127C162.181 74.8215 161.887 74.8 161.599 74.8644Z" fill="#263238"/>
<path d="M178.698 73.7368C178.715 73.7044 178.733 73.672 178.745 73.6397C178.674 73.6181 178.598 73.5965 178.527 73.5749C178.492 73.5641 178.457 73.5533 178.421 73.5371C178.598 73.5155 178.739 73.4454 178.874 73.3428C178.927 73.2025 178.98 73.0514 179.027 72.8841C178.809 73.0838 178.574 73.3213 178.322 73.4993C178.11 73.4292 177.904 73.3536 177.693 73.2781C178.245 73.2079 178.539 72.7169 178.95 72.0261C178.592 72.1934 178.133 72.8464 177.605 73.2457C177.534 73.2187 177.458 73.1917 177.387 73.1648C177.252 73.1108 177.117 73.0568 176.982 73.0029C177.569 72.9165 177.887 72.3931 178.327 71.6484C177.94 71.8318 177.446 72.5334 176.882 72.9597C176.647 72.868 176.418 72.7708 176.189 72.6683C176.776 72.5604 177.146 72.0207 177.652 71.2868C177.229 71.4595 176.659 72.161 176.03 72.5981C175.848 72.5172 175.666 72.4363 175.484 72.3499C176.124 72.2312 176.524 71.6484 177.076 70.8443C176.618 71.0332 175.995 71.7941 175.319 72.269C175.272 72.2474 175.225 72.2258 175.178 72.2042C174.931 72.0855 174.69 71.9668 174.449 71.8426C175.113 71.7509 175.63 71.1411 176.324 70.3101C175.807 70.4719 175.031 71.2652 174.238 71.7347C173.968 71.5944 173.703 71.4541 173.439 71.303C174.226 71.2706 174.808 70.5853 175.613 69.6247C175.037 69.8028 174.167 70.704 173.28 71.2113C173.204 71.1681 173.127 71.1249 173.051 71.0817C172.816 70.9414 172.581 70.8011 172.352 70.6554C173.204 70.6554 173.88 69.9485 174.814 68.9556C174.179 69.1174 173.169 70.0402 172.176 70.5421C171.923 70.3802 171.676 70.2129 171.435 70.0402C172.393 70.0834 173.133 69.3009 174.173 68.2001C173.48 68.3781 172.375 69.3927 171.288 69.9323C171.218 69.8783 171.142 69.8298 171.071 69.7704C171.006 69.7218 170.912 69.7326 170.859 69.792C170.807 69.8514 170.818 69.9377 170.883 69.9863C170.965 70.0456 171.047 70.0996 171.124 70.1536C171.194 71.2922 170.801 72.7169 170.995 73.359C171.476 72.0045 171.823 71.0278 171.335 70.2993C171.594 70.472 171.858 70.6392 172.123 70.8065C172.181 71.8534 171.823 73.1594 172.005 73.753C172.452 72.4956 172.769 71.5944 172.311 70.9199C172.516 71.044 172.716 71.1627 172.922 71.276C173.039 71.3408 173.157 71.4055 173.274 71.4703C173.274 72.4362 172.863 73.6235 172.992 74.1793C173.492 73.0083 173.844 72.1826 173.392 71.535C173.668 71.6807 173.95 71.8265 174.232 71.9614C174.232 72.8518 173.856 73.9419 173.974 74.4491C174.432 73.3752 174.755 72.6143 174.344 72.0153C174.585 72.134 174.831 72.2474 175.078 72.3607C175.137 72.3877 175.202 72.4147 175.26 72.4416C175.196 73.2511 174.755 74.2009 174.826 74.6866C175.348 73.7368 175.707 73.0784 175.307 72.4632C175.548 72.5712 175.789 72.6737 176.03 72.7708C175.971 73.494 175.595 74.3304 175.63 74.7891C175.642 74.7891 175.648 74.7891 175.66 74.7891C176.124 73.9472 176.435 73.3536 176.077 72.7924C176.336 72.9003 176.594 73.0029 176.853 73.1C176.764 73.6451 176.482 74.2494 176.394 74.6758C176.447 74.665 176.5 74.6596 176.553 74.6488C176.929 74.0444 177.152 73.5803 176.905 73.127C177.046 73.181 177.193 73.2349 177.334 73.2889C177.417 73.3213 177.505 73.3482 177.587 73.3752C177.528 73.7476 177.37 74.1523 177.258 74.4977C177.352 74.4761 177.446 74.4491 177.528 74.4275C177.728 74.0444 177.81 73.7152 177.64 73.3914C177.869 73.4724 178.098 73.5479 178.333 73.6235C178.316 73.8069 178.274 73.9904 178.222 74.1739C178.316 74.1307 178.404 74.0822 178.48 74.0336C178.48 73.8987 178.445 73.7692 178.369 73.6343C178.41 73.645 178.457 73.6612 178.498 73.6774C178.568 73.699 178.633 73.7152 178.703 73.7368H178.698Z" fill="#263238"/>
<path d="M156.088 62.4744C156.17 62.4528 156.217 62.3773 156.194 62.3017C156.17 62.2262 156.088 62.183 156.006 62.2046C155.906 62.2316 155.812 62.2586 155.712 62.2856C154.672 61.665 153.655 60.5317 152.974 60.2943C153.879 61.4545 154.537 62.2856 155.459 62.3503C155.154 62.4367 154.848 62.5338 154.548 62.6363C153.843 62.21 153.15 61.5355 152.58 61.1253C152.58 61.2494 152.58 61.3682 152.58 61.4923C153.168 62.1938 153.679 62.6633 154.343 62.7065C154.114 62.7874 153.89 62.8684 153.667 62.9493C153.538 62.9979 153.414 63.0465 153.291 63.095C153.05 62.9331 152.809 62.7335 152.58 62.523C152.58 62.6741 152.58 62.8252 152.574 62.9709C152.756 63.068 152.95 63.1274 153.162 63.1436C152.962 63.2245 152.762 63.3109 152.563 63.3972C152.563 63.4728 152.563 63.5483 152.557 63.6239C152.821 63.5159 153.08 63.408 153.344 63.3109C152.903 63.9153 153.168 64.7463 153.532 65.912C153.714 65.3831 153.438 64.2013 153.514 63.2461C153.597 63.2137 153.679 63.1814 153.761 63.1544C154.02 63.0626 154.284 62.9763 154.548 62.89C154.043 63.5213 154.272 64.4387 154.59 65.7177C154.825 65.1511 154.607 63.8613 154.754 62.8252C155.048 62.7335 155.342 62.6525 155.635 62.5716C155.03 63.2569 155.283 64.2661 155.635 65.6853C155.888 65.0647 155.647 63.6455 155.818 62.523C155.906 62.5014 156 62.4744 156.088 62.4529V62.4744Z" fill="#263238"/>
<path d="M152.457 65.858C152.474 65.9228 152.498 65.9821 152.516 66.0523C152.621 65.7501 152.563 65.2158 152.516 64.6438C152.498 65.0593 152.474 65.4695 152.451 65.8634L152.457 65.858Z" fill="#263238"/>
<path d="M154.537 73.753C154.467 73.645 154.39 73.5371 154.314 73.4346C154.79 72.5711 155.742 71.6807 155.9 71.1357C154.878 71.9721 154.161 72.5604 154.237 73.3267C154.061 73.0784 153.885 72.8356 153.697 72.5981C154.137 71.8049 155.007 70.99 155.154 70.4881C154.214 71.2544 153.55 71.7995 153.62 72.501C153.462 72.2959 153.297 72.0909 153.133 71.8912C153.092 71.8426 153.05 71.7941 153.009 71.7455C153.468 71.0494 154.325 70.3856 154.502 69.9269C153.568 70.5529 152.927 70.99 152.98 71.7131C152.821 71.5188 152.657 71.3246 152.486 71.1357C152.909 70.4989 153.697 69.8837 153.861 69.4628C153.003 70.0402 152.41 70.4396 152.457 71.0979C152.34 70.963 152.216 70.8281 152.093 70.6986C152.093 70.7741 152.081 70.8497 152.075 70.9252C152.146 71.0062 152.216 71.0871 152.287 71.1681C152.21 71.1519 152.14 71.1411 152.063 71.1357C152.063 71.2166 152.058 71.2922 152.052 71.3731C152.169 71.3462 152.281 71.3192 152.398 71.2976C152.522 71.4433 152.645 71.5944 152.763 71.7455C152.528 71.6861 152.287 71.6969 152.034 71.7617C152.034 71.875 152.022 71.9883 152.016 72.0963C152.298 72.0153 152.592 71.9344 152.874 71.8858C152.904 71.9236 152.939 71.9667 152.968 72.0045C153.127 72.2096 153.286 72.42 153.444 72.6305C153.033 72.5064 152.569 72.5981 152.01 72.8032C152.01 72.9003 152.01 73.0083 152.01 73.1054C152.504 73.0029 153.062 72.8626 153.579 72.814C153.75 73.0514 153.914 73.2889 154.079 73.5263C153.521 73.2889 152.874 73.467 152.052 73.8069C152.058 73.8771 152.058 73.958 152.063 74.0228C152.11 74.0228 152.152 74.0336 152.199 74.039C152.798 73.9203 153.521 73.726 154.179 73.6774C154.226 73.7476 154.273 73.8177 154.32 73.8879C154.408 74.0282 154.49 74.1685 154.578 74.3034C154.69 74.3142 154.796 74.325 154.907 74.3358C154.784 74.1415 154.666 73.9526 154.537 73.7638V73.753Z" fill="#263238"/>
<path d="M152.239 68.853C152.233 68.9394 152.228 69.0203 152.222 69.1066C152.41 68.9286 152.568 68.7613 152.633 68.621C152.492 68.7019 152.363 68.7829 152.239 68.8584V68.853Z" fill="#263238"/>
<path d="M155.694 74.4005C155.871 74.4167 156.041 74.4329 156.217 74.4491C156.687 73.7638 157.181 73.127 157.281 72.6899C156.57 73.3428 156 73.8717 155.694 74.4005Z" fill="#263238"/>
<path d="M155.101 74.3412C155.588 73.4292 156.446 72.4956 156.576 71.9236C155.559 72.8572 154.83 73.5317 154.907 74.3196C154.971 74.325 155.036 74.3304 155.101 74.3412Z" fill="#263238"/>
<path d="M152.163 69.819C152.151 69.9647 152.14 70.105 152.134 70.2453C152.557 69.7866 153.115 69.3711 153.262 69.0527C152.792 69.3279 152.41 69.5599 152.163 69.819Z" fill="#263238"/>
</g>
<path d="M192.975 56.6247L195.572 54.0938L199.168 58.7455C199.168 58.7455 196.131 60.726 193.222 60.645L192.887 59.9597C192.347 58.848 192.376 57.6176 192.975 56.6193V56.6247Z" fill="#FFB573"/>
<path d="M199.738 54.3366L200.754 56.0959C201.218 56.8999 200.889 57.8929 200.02 58.3246L199.168 58.7455L195.572 54.0938L197.628 53.5272C198.451 53.3005 199.332 53.6405 199.732 54.3366H199.738Z" fill="#FFB573"/>
<path d="M179.25 47.5425L179.467 48.5732L179.714 49.6633C179.89 50.3918 180.066 51.1204 180.266 51.8435C180.648 53.2897 181.101 54.709 181.594 56.0797C182.105 57.4396 182.675 58.7509 183.333 59.9165C183.997 61.066 184.761 62.0751 185.49 62.6687L184.238 62.1021C183.874 62.0535 183.809 62.1614 183.997 62.1506C184.179 62.1506 184.52 62.0643 184.89 61.9186C185.642 61.6164 186.535 61.1361 187.393 60.5749C188.269 60.0245 189.15 59.3931 190.026 58.7455C190.901 58.1033 191.794 57.3964 192.652 56.7542L192.74 56.6841C193.621 56.0203 194.926 56.139 195.649 56.9485C196.183 57.5529 196.254 58.3678 195.889 59.0207C195.29 60.1 194.644 61.0444 193.921 62.0157C193.198 62.9709 192.411 63.8991 191.53 64.8003C190.625 65.6907 189.655 66.5811 188.363 67.3798C187.711 67.7791 186.976 68.1677 186.018 68.4807C185.537 68.6318 184.996 68.7613 184.362 68.8152C183.733 68.8692 183.016 68.8476 182.27 68.6749C181.859 68.5832 181.488 68.4213 181.165 68.2054L181.024 68.1083C178.979 66.7484 177.64 65.1241 176.553 63.5267C176.018 62.7227 175.536 61.9132 175.102 61.1037C174.684 60.2889 174.302 59.474 173.95 58.6538C173.251 57.0186 172.698 55.3727 172.228 53.716C171.999 52.885 171.782 52.0593 171.6 51.2229C171.506 50.8074 171.418 50.3864 171.341 49.9601C171.259 49.523 171.194 49.1345 171.118 48.6272C170.806 46.5604 172.381 44.6554 174.631 44.3694C176.8 44.0942 178.809 45.4271 179.226 47.3806L179.261 47.5317L179.25 47.5425Z" fill="#FFB573"/>
<path d="M173.615 41.8763C177.029 42.2001 179.767 44.2831 181.676 50.9153C180.208 52.7825 170.953 56.8783 170.953 56.8783C170.953 56.8783 165.801 41.1316 173.615 41.8763Z" fill="#263238"/>
<path d="M37.56 90.4C37.3067 89.9333 36.94 89.58 36.46 89.34C35.9933 89.0867 35.44 88.96 34.8 88.96C33.6933 88.96 32.8067 89.3267 32.14 90.06C31.4733 90.78 31.14 91.7467 31.14 92.96C31.14 94.2533 31.4867 95.2667 32.18 96C32.8867 96.72 33.8533 97.08 35.08 97.08C35.92 97.08 36.6267 96.8667 37.2 96.44C37.7867 96.0133 38.2133 95.4 38.48 94.6H34.14V92.08H41.58V95.26C41.3267 96.1133 40.8933 96.9067 40.28 97.64C39.68 98.3733 38.9133 98.9667 37.98 99.42C37.0467 99.8733 35.9933 100.1 34.82 100.1C33.4333 100.1 32.1933 99.8 31.1 99.2C30.02 98.5867 29.1733 97.74 28.56 96.66C27.96 95.58 27.66 94.3467 27.66 92.96C27.66 91.5733 27.96 90.34 28.56 89.26C29.1733 88.1667 30.02 87.32 31.1 86.72C32.18 86.1067 33.4133 85.8 34.8 85.8C36.48 85.8 37.8933 86.2067 39.04 87.02C40.2 87.8333 40.9667 88.96 41.34 90.4H37.56ZM53.9944 94.24C53.9944 94.56 53.9744 94.8933 53.9344 95.24H46.1944C46.2477 95.9333 46.4677 96.4667 46.8544 96.84C47.2544 97.2 47.741 97.38 48.3144 97.38C49.1677 97.38 49.761 97.02 50.0944 96.3H53.7344C53.5477 97.0333 53.2077 97.6933 52.7144 98.28C52.2344 98.8667 51.6277 99.3267 50.8944 99.66C50.161 99.9933 49.341 100.16 48.4344 100.16C47.341 100.16 46.3677 99.9267 45.5144 99.46C44.661 98.9933 43.9944 98.3267 43.5144 97.46C43.0344 96.5933 42.7944 95.58 42.7944 94.42C42.7944 93.26 43.0277 92.2467 43.4944 91.38C43.9744 90.5133 44.641 89.8467 45.4944 89.38C46.3477 88.9133 47.3277 88.68 48.4344 88.68C49.5144 88.68 50.4744 88.9067 51.3144 89.36C52.1544 89.8133 52.8077 90.46 53.2744 91.3C53.7544 92.14 53.9944 93.12 53.9944 94.24ZM50.4944 93.34C50.4944 92.7533 50.2944 92.2867 49.8944 91.94C49.4944 91.5933 48.9944 91.42 48.3944 91.42C47.821 91.42 47.3344 91.5867 46.9344 91.92C46.5477 92.2533 46.3077 92.7267 46.2144 93.34H50.4944ZM62.5986 88.72C63.9053 88.72 64.9453 89.1467 65.7186 90C66.5053 90.84 66.8986 92 66.8986 93.48V100H63.4986V93.94C63.4986 93.1933 63.3053 92.6133 62.9186 92.2C62.5319 91.7867 62.0119 91.58 61.3586 91.58C60.7053 91.58 60.1853 91.7867 59.7986 92.2C59.4119 92.6133 59.2186 93.1933 59.2186 93.94V100H55.7986V88.84H59.2186V90.32C59.5653 89.8267 60.0319 89.44 60.6186 89.16C61.2053 88.8667 61.8653 88.72 62.5986 88.72ZM79.7952 94.24C79.7952 94.56 79.7752 94.8933 79.7352 95.24H71.9952C72.0485 95.9333 72.2685 96.4667 72.6552 96.84C73.0552 97.2 73.5418 97.38 74.1152 97.38C74.9685 97.38 75.5618 97.02 75.8952 96.3H79.5352C79.3485 97.0333 79.0085 97.6933 78.5152 98.28C78.0352 98.8667 77.4285 99.3267 76.6952 99.66C75.9618 99.9933 75.1418 100.16 74.2352 100.16C73.1418 100.16 72.1685 99.9267 71.3152 99.46C70.4618 98.9933 69.7952 98.3267 69.3152 97.46C68.8352 96.5933 68.5952 95.58 68.5952 94.42C68.5952 93.26 68.8285 92.2467 69.2952 91.38C69.7752 90.5133 70.4418 89.8467 71.2952 89.38C72.1485 88.9133 73.1285 88.68 74.2352 88.68C75.3152 88.68 76.2752 88.9067 77.1152 89.36C77.9552 89.8133 78.6085 90.46 79.0752 91.3C79.5552 92.14 79.7952 93.12 79.7952 94.24ZM76.2952 93.34C76.2952 92.7533 76.0952 92.2867 75.6952 91.94C75.2952 91.5933 74.7952 91.42 74.1952 91.42C73.6218 91.42 73.1352 91.5867 72.7352 91.92C72.3485 92.2533 72.1085 92.7267 72.0152 93.34H76.2952ZM85.0194 90.7C85.4194 90.0867 85.9194 89.6067 86.5194 89.26C87.1194 88.9 87.786 88.72 88.5194 88.72V92.34H87.5794C86.726 92.34 86.086 92.5267 85.6594 92.9C85.2327 93.26 85.0194 93.9 85.0194 94.82V100H81.5994V88.84H85.0194V90.7ZM89.4741 94.4C89.4741 93.2533 89.6874 92.2467 90.1141 91.38C90.5541 90.5133 91.1474 89.8467 91.8941 89.38C92.6407 88.9133 93.4741 88.68 94.3941 88.68C95.1807 88.68 95.8674 88.84 96.4541 89.16C97.0541 89.48 97.5141 89.9 97.8341 90.42V88.84H101.254V100H97.8341V98.42C97.5007 98.94 97.0341 99.36 96.4341 99.68C95.8474 100 95.1607 100.16 94.3741 100.16C93.4674 100.16 92.6407 99.9267 91.8941 99.46C91.1474 98.98 90.5541 98.3067 90.1141 97.44C89.6874 96.56 89.4741 95.5467 89.4741 94.4ZM97.8341 94.42C97.8341 93.5667 97.5941 92.8933 97.1141 92.4C96.6474 91.9067 96.0741 91.66 95.3941 91.66C94.7141 91.66 94.1341 91.9067 93.6541 92.4C93.1874 92.88 92.9541 93.5467 92.9541 94.4C92.9541 95.2533 93.1874 95.9333 93.6541 96.44C94.1341 96.9333 94.7141 97.18 95.3941 97.18C96.0741 97.18 96.6474 96.9333 97.1141 96.44C97.5941 95.9467 97.8341 95.2733 97.8341 94.42ZM109.948 97.1V100H108.208C106.968 100 106.002 99.7 105.308 99.1C104.615 98.4867 104.268 97.4933 104.268 96.12V91.68H102.908V88.84H104.268V86.12H107.688V88.84H109.928V91.68H107.688V96.16C107.688 96.4933 107.768 96.7333 107.928 96.88C108.088 97.0267 108.355 97.1 108.728 97.1H109.948ZM122.373 94.24C122.373 94.56 122.353 94.8933 122.313 95.24H114.573C114.627 95.9333 114.847 96.4667 115.233 96.84C115.633 97.2 116.12 97.38 116.693 97.38C117.547 97.38 118.14 97.02 118.473 96.3H122.113C121.927 97.0333 121.587 97.6933 121.093 98.28C120.613 98.8667 120.007 99.3267 119.273 99.66C118.54 99.9933 117.72 100.16 116.813 100.16C115.72 100.16 114.747 99.9267 113.893 99.46C113.04 98.9933 112.373 98.3267 111.893 97.46C111.413 96.5933 111.173 95.58 111.173 94.42C111.173 93.26 111.407 92.2467 111.873 91.38C112.353 90.5133 113.02 89.8467 113.873 89.38C114.727 88.9133 115.707 88.68 116.813 88.68C117.893 88.68 118.853 88.9067 119.693 89.36C120.533 89.8133 121.187 90.46 121.653 91.3C122.133 92.14 122.373 93.12 122.373 94.24ZM118.873 93.34C118.873 92.7533 118.673 92.2867 118.273 91.94C117.873 91.5933 117.373 91.42 116.773 91.42C116.2 91.42 115.713 91.5867 115.313 91.92C114.927 92.2533 114.687 92.7267 114.593 93.34H118.873ZM27.56 114.4C27.56 113.253 27.7733 112.247 28.2 111.38C28.64 110.513 29.2333 109.847 29.98 109.38C30.7267 108.913 31.56 108.68 32.48 108.68C33.2667 108.68 33.9533 108.84 34.54 109.16C35.14 109.48 35.6 109.9 35.92 110.42V108.84H39.34V120H35.92V118.42C35.5867 118.94 35.12 119.36 34.52 119.68C33.9333 120 33.2467 120.16 32.46 120.16C31.5533 120.16 30.7267 119.927 29.98 119.46C29.2333 118.98 28.64 118.307 28.2 117.44C27.7733 116.56 27.56 115.547 27.56 114.4ZM35.92 114.42C35.92 113.567 35.68 112.893 35.2 112.4C34.7333 111.907 34.16 111.66 33.48 111.66C32.8 111.66 32.22 111.907 31.74 112.4C31.2733 112.88 31.04 113.547 31.04 114.4C31.04 115.253 31.2733 115.933 31.74 116.44C32.22 116.933 32.8 117.18 33.48 117.18C34.16 117.18 34.7333 116.933 35.2 116.44C35.68 115.947 35.92 115.273 35.92 114.42ZM48.6142 108.72C49.9209 108.72 50.9609 109.147 51.7342 110C52.5209 110.84 52.9142 112 52.9142 113.48V120H49.5142V113.94C49.5142 113.193 49.3209 112.613 48.9342 112.2C48.5476 111.787 48.0276 111.58 47.3742 111.58C46.7209 111.58 46.2009 111.787 45.8142 112.2C45.4276 112.613 45.2342 113.193 45.2342 113.94V120H41.8142V108.84H45.2342V110.32C45.5809 109.827 46.0476 109.44 46.6342 109.16C47.2209 108.867 47.8809 108.72 48.6142 108.72ZM54.6108 114.4C54.6108 113.253 54.8241 112.247 55.2508 111.38C55.6908 110.513 56.2841 109.847 57.0308 109.38C57.7774 108.913 58.6108 108.68 59.5308 108.68C60.2641 108.68 60.9308 108.833 61.5308 109.14C62.1441 109.447 62.6241 109.86 62.9708 110.38V105.2H66.3908V120H62.9708V118.4C62.6508 118.933 62.1908 119.36 61.5908 119.68C61.0041 120 60.3174 120.16 59.5308 120.16C58.6108 120.16 57.7774 119.927 57.0308 119.46C56.2841 118.98 55.6908 118.307 55.2508 117.44C54.8241 116.56 54.6108 115.547 54.6108 114.4ZM62.9708 114.42C62.9708 113.567 62.7308 112.893 62.2508 112.4C61.7841 111.907 61.2108 111.66 60.5308 111.66C59.8508 111.66 59.2708 111.907 58.7908 112.4C58.3241 112.88 58.0908 113.547 58.0908 114.4C58.0908 115.253 58.3241 115.933 58.7908 116.44C59.2708 116.933 59.8508 117.18 60.5308 117.18C61.2108 117.18 61.7841 116.933 62.2508 116.44C62.7308 115.947 62.9708 115.273 62.9708 114.42ZM78.1833 120.14C77.1566 120.14 76.2366 119.973 75.4233 119.64C74.6099 119.307 73.9566 118.813 73.4633 118.16C72.9833 117.507 72.7299 116.72 72.7033 115.8H76.3433C76.3966 116.32 76.5766 116.72 76.8833 117C77.1899 117.267 77.5899 117.4 78.0833 117.4C78.5899 117.4 78.9899 117.287 79.2833 117.06C79.5766 116.82 79.7233 116.493 79.7233 116.08C79.7233 115.733 79.6033 115.447 79.3633 115.22C79.1366 114.993 78.8499 114.807 78.5033 114.66C78.1699 114.513 77.6899 114.347 77.0633 114.16C76.1566 113.88 75.4166 113.6 74.8433 113.32C74.2699 113.04 73.7766 112.627 73.3633 112.08C72.9499 111.533 72.7433 110.82 72.7433 109.94C72.7433 108.633 73.2166 107.613 74.1633 106.88C75.1099 106.133 76.3433 105.76 77.8633 105.76C79.4099 105.76 80.6566 106.133 81.6033 106.88C82.5499 107.613 83.0566 108.64 83.1233 109.96H79.4233C79.3966 109.507 79.2299 109.153 78.9233 108.9C78.6166 108.633 78.2233 108.5 77.7433 108.5C77.3299 108.5 76.9966 108.613 76.7433 108.84C76.4899 109.053 76.3633 109.367 76.3633 109.78C76.3633 110.233 76.5766 110.587 77.0033 110.84C77.4299 111.093 78.0966 111.367 79.0033 111.66C79.9099 111.967 80.6433 112.26 81.2033 112.54C81.7766 112.82 82.2699 113.227 82.6833 113.76C83.0966 114.293 83.3033 114.98 83.3033 115.82C83.3033 116.62 83.0966 117.347 82.6833 118C82.2833 118.653 81.6966 119.173 80.9233 119.56C80.1499 119.947 79.2366 120.14 78.1833 120.14ZM92.268 108.72C93.548 108.72 94.5746 109.147 95.348 110C96.1213 110.84 96.508 112 96.508 113.48V120H93.108V113.94C93.108 113.193 92.9146 112.613 92.528 112.2C92.1413 111.787 91.6213 111.58 90.968 111.58C90.3146 111.58 89.7946 111.787 89.408 112.2C89.0213 112.613 88.828 113.193 88.828 113.94V120H85.408V105.2H88.828V110.34C89.1746 109.847 89.648 109.453 90.248 109.16C90.848 108.867 91.5213 108.72 92.268 108.72ZM98.2045 114.4C98.2045 113.253 98.4179 112.247 98.8445 111.38C99.2845 110.513 99.8779 109.847 100.625 109.38C101.371 108.913 102.205 108.68 103.125 108.68C103.911 108.68 104.598 108.84 105.185 109.16C105.785 109.48 106.245 109.9 106.565 110.42V108.84H109.985V120H106.565V118.42C106.231 118.94 105.765 119.36 105.165 119.68C104.578 120 103.891 120.16 103.105 120.16C102.198 120.16 101.371 119.927 100.625 119.46C99.8779 118.98 99.2845 118.307 98.8445 117.44C98.4179 116.56 98.2045 115.547 98.2045 114.4ZM106.565 114.42C106.565 113.567 106.325 112.893 105.845 112.4C105.378 111.907 104.805 111.66 104.125 111.66C103.445 111.66 102.865 111.907 102.385 112.4C101.918 112.88 101.685 113.547 101.685 114.4C101.685 115.253 101.918 115.933 102.385 116.44C102.865 116.933 103.445 117.18 104.125 117.18C104.805 117.18 105.378 116.933 105.845 116.44C106.325 115.947 106.565 115.273 106.565 114.42ZM115.879 110.7C116.279 110.087 116.779 109.607 117.379 109.26C117.979 108.9 118.645 108.72 119.379 108.72V112.34H118.439C117.585 112.34 116.945 112.527 116.519 112.9C116.092 113.26 115.879 113.9 115.879 114.82V120H112.459V108.84H115.879V110.7ZM131.533 114.24C131.533 114.56 131.513 114.893 131.473 115.24H123.733C123.787 115.933 124.007 116.467 124.393 116.84C124.793 117.2 125.28 117.38 125.853 117.38C126.707 117.38 127.3 117.02 127.633 116.3H131.273C131.087 117.033 130.747 117.693 130.253 118.28C129.773 118.867 129.167 119.327 128.433 119.66C127.7 119.993 126.88 120.16 125.973 120.16C124.88 120.16 123.907 119.927 123.053 119.46C122.2 118.993 121.533 118.327 121.053 117.46C120.573 116.593 120.333 115.58 120.333 114.42C120.333 113.26 120.567 112.247 121.033 111.38C121.513 110.513 122.18 109.847 123.033 109.38C123.887 108.913 124.867 108.68 125.973 108.68C127.053 108.68 128.013 108.907 128.853 109.36C129.693 109.813 130.347 110.46 130.813 111.3C131.293 112.14 131.533 113.12 131.533 114.24ZM128.033 113.34C128.033 112.753 127.833 112.287 127.433 111.94C127.033 111.593 126.533 111.42 125.933 111.42C125.36 111.42 124.873 111.587 124.473 111.92C124.087 112.253 123.847 112.727 123.753 113.34H128.033ZM31.66 125.96V140H28.24V125.96H31.66ZM40.9384 128.72C42.2451 128.72 43.2851 129.147 44.0584 130C44.8451 130.84 45.2384 132 45.2384 133.48V140H41.8384V133.94C41.8384 133.193 41.6451 132.613 41.2584 132.2C40.8718 131.787 40.3518 131.58 39.6984 131.58C39.0451 131.58 38.5251 131.787 38.1384 132.2C37.7518 132.613 37.5584 133.193 37.5584 133.94V140H34.1384V128.84H37.5584V130.32C37.9051 129.827 38.3718 129.44 38.9584 129.16C39.5451 128.867 40.2051 128.72 40.9384 128.72ZM52.635 136.8L55.055 128.84H58.695L54.735 140H50.515L46.555 128.84H50.215L52.635 136.8ZM65.2145 140.16C64.1212 140.16 63.1345 139.927 62.2545 139.46C61.3879 138.993 60.7012 138.327 60.1945 137.46C59.7012 136.593 59.4545 135.58 59.4545 134.42C59.4545 133.273 59.7079 132.267 60.2145 131.4C60.7212 130.52 61.4145 129.847 62.2945 129.38C63.1745 128.913 64.1612 128.68 65.2545 128.68C66.3479 128.68 67.3345 128.913 68.2145 129.38C69.0945 129.847 69.7879 130.52 70.2945 131.4C70.8012 132.267 71.0545 133.273 71.0545 134.42C71.0545 135.567 70.7945 136.58 70.2745 137.46C69.7679 138.327 69.0679 138.993 68.1745 139.46C67.2945 139.927 66.3079 140.16 65.2145 140.16ZM65.2145 137.2C65.8679 137.2 66.4212 136.96 66.8745 136.48C67.3412 136 67.5745 135.313 67.5745 134.42C67.5745 133.527 67.3479 132.84 66.8945 132.36C66.4545 131.88 65.9079 131.64 65.2545 131.64C64.5879 131.64 64.0345 131.88 63.5945 132.36C63.1545 132.827 62.9345 133.513 62.9345 134.42C62.9345 135.313 63.1479 136 63.5745 136.48C64.0145 136.96 64.5612 137.2 65.2145 137.2ZM74.5889 127.68C73.9889 127.68 73.4956 127.507 73.1089 127.16C72.7356 126.8 72.5489 126.36 72.5489 125.84C72.5489 125.307 72.7356 124.867 73.1089 124.52C73.4956 124.16 73.9889 123.98 74.5889 123.98C75.1756 123.98 75.6556 124.16 76.0289 124.52C76.4156 124.867 76.6089 125.307 76.6089 125.84C76.6089 126.36 76.4156 126.8 76.0289 127.16C75.6556 127.507 75.1756 127.68 74.5889 127.68ZM76.2889 128.84V140H72.8689V128.84H76.2889ZM78.0873 134.42C78.0873 133.26 78.3207 132.247 78.7873 131.38C79.2673 130.513 79.9273 129.847 80.7673 129.38C81.6207 128.913 82.594 128.68 83.6873 128.68C85.0873 128.68 86.254 129.047 87.1873 129.78C88.134 130.513 88.754 131.547 89.0473 132.88H85.4073C85.1007 132.027 84.5073 131.6 83.6273 131.6C83.0007 131.6 82.5007 131.847 82.1273 132.34C81.754 132.82 81.5673 133.513 81.5673 134.42C81.5673 135.327 81.754 136.027 82.1273 136.52C82.5007 137 83.0007 137.24 83.6273 137.24C84.5073 137.24 85.1007 136.813 85.4073 135.96H89.0473C88.754 137.267 88.134 138.293 87.1873 139.04C86.2407 139.787 85.074 140.16 83.6873 140.16C82.594 140.16 81.6207 139.927 80.7673 139.46C79.9273 138.993 79.2673 138.327 78.7873 137.46C78.3207 136.593 78.0873 135.58 78.0873 134.42ZM101.397 134.24C101.397 134.56 101.377 134.893 101.337 135.24H93.5967C93.6501 135.933 93.8701 136.467 94.2567 136.84C94.6567 137.2 95.1434 137.38 95.7167 137.38C96.5701 137.38 97.1634 137.02 97.4967 136.3H101.137C100.95 137.033 100.61 137.693 100.117 138.28C99.6367 138.867 99.0301 139.327 98.2967 139.66C97.5634 139.993 96.7434 140.16 95.8367 140.16C94.7434 140.16 93.7701 139.927 92.9167 139.46C92.0634 138.993 91.3967 138.327 90.9167 137.46C90.4367 136.593 90.1967 135.58 90.1967 134.42C90.1967 133.26 90.4301 132.247 90.8967 131.38C91.3767 130.513 92.0434 129.847 92.8967 129.38C93.7501 128.913 94.7301 128.68 95.8367 128.68C96.9167 128.68 97.8767 128.907 98.7167 129.36C99.5567 129.813 100.21 130.46 100.677 131.3C101.157 132.14 101.397 133.12 101.397 134.24ZM97.8967 133.34C97.8967 132.753 97.6967 132.287 97.2967 131.94C96.8967 131.593 96.3967 131.42 95.7967 131.42C95.2234 131.42 94.7367 131.587 94.3367 131.92C93.9501 132.253 93.7101 132.727 93.6167 133.34H97.8967ZM107.741 140.16C106.768 140.16 105.901 139.993 105.141 139.66C104.381 139.327 103.781 138.873 103.341 138.3C102.901 137.713 102.654 137.06 102.601 136.34H105.981C106.021 136.727 106.201 137.04 106.521 137.28C106.841 137.52 107.234 137.64 107.701 137.64C108.128 137.64 108.454 137.56 108.681 137.4C108.921 137.227 109.041 137.007 109.041 136.74C109.041 136.42 108.874 136.187 108.541 136.04C108.208 135.88 107.668 135.707 106.921 135.52C106.121 135.333 105.454 135.14 104.921 134.94C104.388 134.727 103.928 134.4 103.541 133.96C103.154 133.507 102.961 132.9 102.961 132.14C102.961 131.5 103.134 130.92 103.481 130.4C103.841 129.867 104.361 129.447 105.041 129.14C105.734 128.833 106.554 128.68 107.501 128.68C108.901 128.68 110.001 129.027 110.801 129.72C111.614 130.413 112.081 131.333 112.201 132.48H109.041C108.988 132.093 108.814 131.787 108.521 131.56C108.241 131.333 107.868 131.22 107.401 131.22C107.001 131.22 106.694 131.3 106.481 131.46C106.268 131.607 106.161 131.813 106.161 132.08C106.161 132.4 106.328 132.64 106.661 132.8C107.008 132.96 107.541 133.12 108.261 133.28C109.088 133.493 109.761 133.707 110.281 133.92C110.801 134.12 111.254 134.453 111.641 134.92C112.041 135.373 112.248 135.987 112.261 136.76C112.261 137.413 112.074 138 111.701 138.52C111.341 139.027 110.814 139.427 110.121 139.72C109.441 140.013 108.648 140.16 107.741 140.16Z" fill="#F5F5F5"/>
</svg>
