<svg width="334" height="192" viewBox="0 0 334 192" fill="none" xmlns="http://www.w3.org/2000/svg">
<rect y="40" width="323" height="136" rx="10" fill="#0057FF"/>
<g clip-path="url(#clip0_89_4)">
<path d="M225.5 191.994C285.423 191.994 334 189.152 334 185.646C334 182.14 285.423 179.298 225.5 179.298C165.577 179.298 117 182.14 117 185.646C117 189.152 165.577 191.994 225.5 191.994Z" fill="#F5F5F5"/>
<path d="M307.207 160.186H216.323C212.495 160.186 209.602 157.046 209.893 153.21L221.029 6.97631C221.32 3.14046 224.694 0 228.522 0H319.406C323.233 0 326.127 3.14046 325.836 6.97631L314.7 153.215C314.409 157.051 311.034 160.192 307.207 160.192V160.186Z" fill="#407BFF"/>
<path opacity="0.5" d="M307.207 160.186H216.323C212.495 160.186 209.602 157.046 209.893 153.21L221.029 6.97631C221.32 3.14046 224.694 0 228.522 0H319.406C323.233 0 326.127 3.14046 325.836 6.97631L314.7 153.215C314.409 157.051 311.034 160.192 307.207 160.192V160.186Z" fill="white"/>
<path d="M305.852 160.186H214.968C211.141 160.186 208.248 157.046 208.539 153.21L219.675 6.97631C219.966 3.14046 223.34 0 227.168 0H318.052C321.879 0 324.772 3.14046 324.481 6.97631L313.345 153.215C313.054 157.051 309.68 160.192 305.852 160.192V160.186Z" fill="#407BFF"/>
<path opacity="0.7" d="M305.852 160.186H214.968C211.141 160.186 208.248 157.046 208.539 153.21L219.675 6.97631C219.966 3.14046 223.34 0 227.168 0H318.052C321.879 0 324.772 3.14046 324.481 6.97631L313.345 153.215C313.054 157.051 309.68 160.192 305.852 160.192V160.186Z" fill="white"/>
<path d="M215.148 157.864C212.59 157.864 210.665 155.778 210.861 153.215L221.846 8.91667C222.042 6.35383 224.28 4.26767 226.843 4.26767H317.727C320.284 4.26767 322.209 6.35383 322.014 8.91667L311.029 153.215C310.833 155.778 308.594 157.864 306.032 157.864H215.148Z" fill="#407BFF"/>
<path opacity="0.2" d="M305.388 28.5389H240.352C238.841 28.5389 237.694 27.2996 237.811 25.7798C237.929 24.2657 239.261 23.0207 240.772 23.0207H305.808C307.319 23.0207 308.466 24.2601 308.348 25.7798C308.231 27.294 306.899 28.5389 305.388 28.5389Z" fill="black"/>
<path opacity="0.3" d="M277.643 2.84324H267.14C266.765 2.84324 266.485 2.54041 266.513 2.16468C266.541 1.78894 266.871 1.48611 267.24 1.48611H277.744C278.119 1.48611 278.399 1.78894 278.371 2.16468C278.343 2.54041 278.013 2.84324 277.643 2.84324Z" fill="#407BFF"/>
<path d="M240.066 25.7798C240.385 21.5626 237.235 18.153 233.032 18.153H299.059C303.261 18.153 306.412 21.5626 306.093 25.7798H240.066Z" fill="#F0F0F0"/>
<path d="M233.032 18.153C228.83 18.153 225.159 21.5626 224.84 25.7798L218.074 114.649C217.755 118.866 214.079 122.276 209.882 122.276H275.909C280.111 122.276 283.782 118.866 284.101 114.649L290.867 25.7798C291.185 21.5626 294.862 18.153 299.059 18.153H233.032Z" fill="white"/>
<path d="M268.88 114.649C268.561 118.866 271.712 122.276 275.914 122.276H209.887C205.685 122.276 202.534 118.866 202.853 114.649H268.88Z" fill="#F0F0F0"/>
<path d="M230.229 112.894C230.475 109.647 229.456 107.017 226.222 107.017H277.067C280.301 107.017 282.736 109.983 281.074 112.894H230.229Z" fill="#E0E0E0"/>
<path d="M268.88 114.649C269.199 110.432 272.875 107.022 277.072 107.022H211.046C206.843 107.022 203.172 110.432 202.853 114.649H268.88Z" fill="#F0F0F0"/>
<path d="M300.1 136.683H224.303C223.206 136.683 222.372 135.78 222.456 134.681C222.54 133.582 223.508 132.679 224.605 132.679H300.402C301.499 132.679 302.333 133.582 302.249 134.681C302.165 135.78 301.197 136.683 300.1 136.683Z" fill="white"/>
<path d="M261.823 146.306H223.57C222.473 146.306 221.639 145.403 221.723 144.304C221.807 143.205 222.775 142.302 223.872 142.302H262.126C263.222 142.302 264.056 143.205 263.972 144.304C263.888 145.403 262.92 146.306 261.823 146.306Z" fill="white"/>
<path d="M288.303 146.306H272.808C271.711 146.306 270.878 145.403 270.962 144.304C271.046 143.205 272.014 142.302 273.11 142.302H288.606C289.702 142.302 290.536 143.205 290.452 144.304C290.368 145.403 289.4 146.306 288.303 146.306Z" fill="white"/>
<path d="M303.804 108.223L299.848 108.845C299.691 108.346 299.54 108.004 299.395 107.808C299.249 107.611 299.009 107.421 298.656 107.224L298.427 110.269C300.514 110.836 301.885 111.442 302.556 112.07C303.435 112.922 303.827 113.999 303.726 115.305C303.67 116.068 303.446 116.775 303.055 117.414C302.668 118.053 302.193 118.586 301.628 119.012C301.068 119.439 300.48 119.753 299.87 119.943C299.26 120.134 298.522 120.252 297.66 120.285L297.509 122.276H295.976L296.127 120.285C295.103 120.196 294.28 120.027 293.659 119.786C293.038 119.545 292.512 119.209 292.075 118.782C291.644 118.356 291.32 117.891 291.102 117.397C290.889 116.904 290.743 116.304 290.671 115.603L294.952 115.109C295.024 115.805 295.159 116.304 295.349 116.612C295.539 116.921 295.869 117.195 296.339 117.431L296.625 113.713C295.243 113.32 294.263 112.978 293.692 112.692C293.122 112.406 292.646 111.941 292.26 111.307C291.874 110.673 291.717 109.899 291.784 108.985C291.879 107.735 292.394 106.692 293.329 105.85C294.263 105.009 295.595 104.544 297.324 104.454L297.403 103.411H298.936L298.858 104.454C300.419 104.555 301.588 104.925 302.372 105.57C303.15 106.215 303.625 107.101 303.793 108.223H303.804ZM297.128 107.174C296.67 107.32 296.345 107.505 296.149 107.723C295.959 107.942 295.853 108.2 295.83 108.497C295.808 108.806 295.875 109.075 296.037 109.305C296.199 109.535 296.496 109.726 296.927 109.883L297.134 107.174H297.128ZM297.873 117.543C298.477 117.408 298.93 117.19 299.232 116.881C299.535 116.573 299.697 116.231 299.725 115.849C299.753 115.519 299.658 115.216 299.445 114.935C299.232 114.655 298.796 114.397 298.136 114.161L297.878 117.537L297.873 117.543Z" fill="white"/>
<path d="M229.261 42.8897H231.141L230.676 48.98H228.796L229.261 42.8897Z" fill="#407BFF"/>
<path d="M232.506 42.8897H234.258L236.289 46.2601L236.546 42.8897H238.315L237.85 48.98H236.082L234.062 45.6376L233.81 48.98H232.042L232.506 42.8897Z" fill="#407BFF"/>
<path d="M238.964 42.8897H240.928L241.964 47.2696L243.648 42.8897H245.556L242.837 48.98H240.8L238.97 42.8897H238.964Z" fill="#407BFF"/>
<path d="M245.405 45.9405C245.483 44.9479 245.813 44.174 246.412 43.6188C247.005 43.0636 247.8 42.7888 248.785 42.7888C249.77 42.7888 250.553 43.0636 251.062 43.6076C251.566 44.1515 251.784 44.9142 251.712 45.8956C251.656 46.6078 251.493 47.191 251.219 47.6453C250.945 48.0995 250.576 48.4528 250.1 48.7108C249.624 48.9688 249.053 49.0922 248.382 49.0922C247.71 49.0922 247.14 48.98 246.703 48.7613C246.272 48.5426 245.931 48.1949 245.69 47.7238C245.45 47.2527 245.355 46.6583 245.405 45.9461V45.9405ZM247.285 45.9461C247.24 46.563 247.319 47.0004 247.526 47.2696C247.733 47.5387 248.035 47.6733 248.427 47.6733C248.818 47.6733 249.154 47.5443 249.395 47.2808C249.635 47.0172 249.781 46.5461 249.837 45.862C249.882 45.2899 249.798 44.8694 249.585 44.6058C249.372 44.3422 249.07 44.2076 248.679 44.2076C248.287 44.2076 247.985 44.3422 247.738 44.6114C247.487 44.8806 247.341 45.3236 247.291 45.9461H247.285Z" fill="#407BFF"/>
<path d="M253.021 42.8897H254.901L254.437 48.98H252.557L253.021 42.8897Z" fill="#407BFF"/>
<path d="M260.022 46.4844L261.628 46.9836C261.482 47.4434 261.281 47.8304 261.018 48.1444C260.755 48.4528 260.441 48.6884 260.078 48.8454C259.714 49.0024 259.261 49.0809 258.712 49.0809C258.052 49.0809 257.52 48.9856 257.117 48.7949C256.714 48.6043 256.379 48.2622 256.11 47.7799C255.841 47.2976 255.741 46.6751 255.797 45.918C255.875 44.9086 256.2 44.1347 256.776 43.5963C257.352 43.058 258.13 42.7832 259.109 42.7832C259.876 42.7832 260.464 42.9402 260.878 43.2487C261.292 43.5571 261.583 44.0338 261.745 44.6787L260.061 45.0488C260.016 44.8637 259.966 44.7292 259.91 44.6394C259.815 44.4936 259.697 44.3871 259.552 44.3086C259.406 44.23 259.238 44.1908 259.048 44.1908C258.623 44.1908 258.281 44.3646 258.029 44.7067C257.839 44.9591 257.722 45.3629 257.682 45.9068C257.632 46.5798 257.699 47.0452 257.884 47.292C258.069 47.5444 258.348 47.6677 258.718 47.6677C259.087 47.6677 259.356 47.5668 259.557 47.3649C259.759 47.163 259.91 46.8714 260.022 46.4844Z" fill="#407BFF"/>
<path d="M262.848 42.8897H267.878L267.778 44.1908H264.627L264.554 45.161H267.475L267.38 46.4003H264.459L264.37 47.6004H267.61L267.503 48.98H262.383L262.848 42.8897Z" fill="#407BFF"/>
<path d="M282.78 56.8424H228.203L228.315 55.3226H282.898L282.78 56.8424Z" fill="#407BFF"/>
<path d="M282.78 56.8424H228.203L227.845 61.4858H282.428L282.78 56.8424Z" fill="#F0F0F0"/>
<path d="M282.075 66.1348H227.492L227.14 70.7782H281.717L282.075 66.1348Z" fill="#F0F0F0"/>
<path d="M281.364 75.4216H226.787L226.435 80.065H281.012L281.364 75.4216Z" fill="#F0F0F0"/>
<path d="M280.659 84.714H226.076L225.724 89.3574H280.307L280.659 84.714Z" fill="#F0F0F0"/>
<path d="M279.837 95.5205H225.254L225.371 94.0008H279.954L279.837 95.5205Z" fill="#407BFF"/>
<path d="M273.592 28.5389H284.935L284.42 35.319H273.077L273.592 28.5389Z" fill="#F0F0F0"/>
<path d="M162.366 71.6754L164.398 72.4942C165.136 72.7914 165.785 73.2793 166.278 73.9018L167.207 75.0795C167.822 75.859 167.794 76.9694 167.14 77.7208L166.149 78.848C165.394 79.7117 164.073 79.7902 163.223 79.0219L162.277 78.1695C162.277 78.1695 159.367 76.1226 158.511 73.4139L159.07 72.8531C159.982 71.939 161.197 71.5016 162.366 71.6754Z" fill="#FFB573"/>
<path d="M167.918 52.0027L167.257 52.4401L166.524 52.9448C166.037 53.2925 165.545 53.6514 165.069 54.0159C164.118 54.7562 163.183 55.5301 162.322 56.3433C160.581 57.964 159.07 59.7417 157.996 61.626C157.856 61.8615 157.733 62.097 157.616 62.3382L157.526 62.5176C157.543 62.4728 157.576 62.3438 157.588 62.2877C157.61 62.1363 157.61 62.0522 157.599 62.0017C157.543 61.8391 157.543 62.2597 157.666 62.6747C157.918 63.5607 158.433 64.6935 159.003 65.7815C160.156 67.991 161.6 70.2622 162.965 72.4998L162.999 72.5559C163.564 73.4868 163.267 74.6981 162.344 75.2645C161.628 75.702 160.744 75.6235 160.117 75.1412C158.964 74.2439 157.934 73.3242 156.916 72.326C155.898 71.3334 154.929 70.2791 154.001 69.135C153.083 67.9686 152.182 66.7685 151.426 65.1366C151.236 64.7216 151.057 64.2785 150.9 63.757C150.749 63.2411 150.621 62.6354 150.609 61.8671C150.609 61.4802 150.637 61.0596 150.744 60.5773C150.788 60.3586 150.884 60.0669 150.956 59.8651L151.063 59.5791C151.203 59.1921 151.359 58.8108 151.522 58.4406C152.837 55.4572 154.745 52.9336 156.854 50.7633C157.918 49.6754 159.037 48.6772 160.218 47.7518C160.805 47.292 161.41 46.8434 162.031 46.4228C162.344 46.2097 162.657 45.9966 162.982 45.8003L163.48 45.4974L164.045 45.1666C165.914 44.0842 168.309 44.7235 169.389 46.6022C170.43 48.408 169.876 50.696 168.164 51.8288L167.912 51.9915L167.918 52.0027Z" fill="#FFB573"/>
<path d="M167.985 43.1028C164.717 43.1197 161.135 44.5217 156.547 50.225C156.547 53.629 163.715 58.1546 163.715 58.1546C163.715 58.1546 175.467 43.0636 167.985 43.1028Z" fill="#263238"/>
<path d="M143.704 177.913C143.648 177.913 143.592 177.902 143.53 177.885C142.853 177.644 142.215 175.916 142.171 174.957C142.171 174.896 142.204 174.84 142.26 174.812C142.316 174.784 142.383 174.789 142.428 174.828C142.501 174.884 144.185 176.27 144.269 177.201C144.286 177.397 144.236 177.571 144.112 177.705C143.995 177.84 143.849 177.913 143.698 177.913H143.704ZM142.534 175.328C142.685 176.242 143.206 177.43 143.637 177.582C143.698 177.604 143.777 177.61 143.877 177.492C143.939 177.419 143.967 177.335 143.956 177.223C143.911 176.673 143.077 175.821 142.529 175.322L142.534 175.328Z" fill="#263238"/>
<path d="M144.756 175.855C143.973 175.855 142.842 175.473 142.243 175.081C142.193 175.047 142.165 174.985 142.176 174.924C142.187 174.862 142.232 174.812 142.294 174.795C142.383 174.772 144.493 174.217 145.293 174.705C145.461 174.806 145.573 174.952 145.612 175.126C145.668 175.372 145.595 175.574 145.411 175.703C145.26 175.81 145.03 175.855 144.762 175.855H144.756ZM142.758 175.008C143.581 175.423 144.851 175.703 145.226 175.445C145.282 175.406 145.332 175.35 145.299 175.199C145.276 175.109 145.22 175.036 145.125 174.974C144.655 174.688 143.475 174.856 142.758 175.008Z" fill="#263238"/>
<path d="M136.379 174.576C137.325 173.421 138.919 171.879 140.553 168.637C140.553 168.637 145.741 169.916 144.722 171.419C142.876 174.139 141.969 179.73 144.353 182.724C145.713 184.435 143.564 184.715 142.143 183.986C139.882 182.82 139.977 182.388 138.802 180.464C137.795 178.816 137.403 178.171 136.021 177.47C134.868 176.881 135.428 175.737 136.379 174.576Z" fill="#407BFF"/>
<path d="M180.419 76.9077C180.419 76.9077 172.887 113.696 167.381 129.409C161.594 145.908 145.623 171.374 145.008 172.462C142.736 171.856 140.71 171.06 139.362 169.736C139.362 169.736 146.86 142.117 154.174 124.2C156.95 86.8001 163.066 76.9077 163.066 76.9077H180.425H180.419Z" fill="#263238"/>
<path opacity="0.2" d="M168.925 96.5916C168.584 103.708 168.349 113.494 168.684 125.405C170.984 117.98 173.486 107.914 175.59 98.8797C174.185 97.001 172.003 96.0981 168.925 96.5916Z" fill="black"/>
<path d="M169.378 31.7972C170.167 34.9937 170.939 40.2147 169.68 42.9907C169.68 42.9907 174.392 43.1982 180.413 48.0154C183.251 43.8431 179.966 43.0243 179.966 43.0243C177.464 42.4355 177.587 39.0931 177.587 36.7154L169.373 31.7916L169.378 31.7972Z" fill="#FFB573"/>
<path d="M168.197 44.4432C165.847 44.1852 167.47 39.71 168.696 40.1418C171.785 41.241 178.707 40.0185 180.85 41.2017C182.993 42.385 182.45 44.8133 182.45 44.8133C182.45 44.8133 170.732 44.7179 168.197 44.4375V44.4432Z" fill="#407BFF"/>
<path opacity="0.7" d="M168.197 44.4432C165.847 44.1852 167.47 39.71 168.696 40.1418C171.785 41.241 178.707 40.0185 180.85 41.2017C182.993 42.385 182.45 44.8133 182.45 44.8133C182.45 44.8133 170.732 44.7179 168.197 44.4375V44.4432Z" fill="white"/>
<path d="M181.907 26.15C181.986 26.5762 182.271 26.8846 182.551 26.8341C182.831 26.7837 182.993 26.3967 182.92 25.9705C182.842 25.5443 182.557 25.2359 182.277 25.2863C181.997 25.3368 181.835 25.7238 181.907 26.15Z" fill="#263238"/>
<path d="M182.159 25.3312L183.133 24.8545C183.133 24.8545 182.747 25.7518 182.159 25.3312Z" fill="#263238"/>
<path d="M182.478 22.7291C182.506 22.673 182.517 22.6057 182.501 22.5384C182.467 22.4038 182.327 22.3197 182.187 22.359C180.828 22.7235 180.447 23.8395 180.43 23.8843C180.385 24.0189 180.458 24.1647 180.592 24.204C180.727 24.2489 180.872 24.176 180.911 24.0414C180.928 23.9965 181.23 23.1385 182.316 22.8469C182.389 22.83 182.439 22.7796 182.473 22.7235L182.478 22.7291Z" fill="#263238"/>
<path d="M182.411 27.1874C182.411 27.1874 183.334 28.9708 184.235 29.7895C183.721 30.384 182.724 30.2382 182.724 30.2382L182.406 27.1874H182.411Z" fill="#ED893E"/>
<path d="M167.302 25.9313C168.55 31.1354 168.964 33.3618 172.042 35.5994C176.67 38.9642 182.646 36.3116 182.948 30.8438C183.217 25.9256 181.135 18.2427 175.729 17.0426C170.402 15.8593 166.06 20.7271 167.302 25.9313Z" fill="#FFB573"/>
<path d="M177.364 26.8846C180.419 22.8356 182.417 19.5662 180.906 15.9827C179.647 12.9881 176.16 13.8629 175.674 15.3602C166.407 14.5695 163.077 17.9343 164.991 23.4974C166.211 27.0416 161.477 25.2078 162.629 29.711C163.514 33.1655 160.397 34.4834 161.98 36.4686C164.263 39.3343 168.975 35.5938 174.353 37.7472C178.751 39.5081 185.366 36.8444 177.369 26.8902L177.364 26.8846Z" fill="#263238"/>
<path d="M176.866 27.7034C177.47 28.6567 178.377 29.1895 179.188 29.3072C180.402 29.4867 180.822 28.1184 180.324 26.851C179.876 25.7069 178.701 24.2433 177.56 24.647C176.429 25.0508 176.177 26.6154 176.866 27.7034Z" fill="#FFB573"/>
<path d="M178.673 181.339C177.895 181.339 176.619 180.722 176.026 180.184C175.981 180.145 175.965 180.077 175.981 180.016C175.998 179.954 176.054 179.915 176.116 179.909C176.205 179.898 178.377 179.662 179.093 180.257C179.244 180.386 179.333 180.543 179.345 180.722C179.361 180.975 179.266 181.165 179.065 181.266C178.959 181.317 178.83 181.339 178.679 181.339H178.673ZM176.541 180.19C177.297 180.717 178.511 181.182 178.919 180.98C178.981 180.952 179.037 180.902 179.026 180.745C179.02 180.649 178.975 180.571 178.886 180.498C178.466 180.15 177.269 180.139 176.535 180.184L176.541 180.19Z" fill="#263238"/>
<path d="M176.133 180.223C176.082 180.223 176.037 180.201 176.004 180.156C175.965 180.106 175.965 180.038 175.993 179.982C176.037 179.904 177.123 178.008 178.03 177.778C178.22 177.728 178.399 177.75 178.55 177.845C178.763 177.98 178.858 178.171 178.819 178.395C178.696 179.107 177.095 180.021 176.161 180.218C176.149 180.218 176.138 180.218 176.127 180.218L176.133 180.223ZM178.22 178.075C178.186 178.075 178.147 178.075 178.108 178.092C177.576 178.227 176.871 179.191 176.474 179.808C177.347 179.505 178.438 178.799 178.516 178.35C178.528 178.283 178.516 178.204 178.393 178.126C178.343 178.092 178.287 178.081 178.225 178.081L178.22 178.075Z" fill="#263238"/>
<path d="M182.831 183.313C178.298 182.96 175.243 179.842 175.567 176.539C175.746 174.716 169.932 174.554 169.932 174.554C170.85 180.201 169.697 181.008 169.317 182.466C168.936 183.93 169.031 185.54 170.234 185.568C171.672 185.601 172.344 185.327 174.135 185.399C176.228 185.484 178.488 185.562 182.204 185.568C183.693 185.568 184.845 183.465 182.831 183.308V183.313Z" fill="#407BFF"/>
<path d="M188.253 76.9077C188.253 76.9077 187.856 104.768 185.662 123.078C183.469 141.388 175.925 177.302 175.925 177.302C173.743 177.728 171.7 177.795 169.899 177.245C169.899 177.245 167.515 149.189 171.521 122.08C168.578 93.6699 166.737 76.9021 166.737 76.9021H188.253V76.9077Z" fill="#263238"/>
<path d="M189.283 51.1335C189.188 53.2869 192.579 58.2612 188.393 61.1493C189.177 62.899 189.837 74.7823 188.253 76.9077C185.942 78.6069 173.435 78.276 163.06 76.9077C162.624 72.612 164.98 63.7121 162.092 49.8324C161.421 46.6134 163.682 43.5234 166.944 43.1982C167.817 43.1085 168.74 43.0356 169.686 42.9907C173.363 42.8112 176.373 42.6935 179.608 42.9907C180.676 43.086 181.784 43.2262 182.842 43.372C186.659 43.9104 189.451 47.2752 189.283 51.1335Z" fill="#407BFF"/>
<g opacity="0.3">
<path d="M162.355 49.0865C162.277 49.1258 162.199 49.1707 162.12 49.2099C162.047 49.2492 162.025 49.3333 162.064 49.4062C162.103 49.4791 162.187 49.5015 162.26 49.4623C162.344 49.4174 162.428 49.3669 162.512 49.3221C163.62 49.7315 164.829 50.6624 165.517 50.7577C164.409 49.7763 163.609 49.0697 162.736 49.1987C162.999 49.0473 163.256 48.8847 163.514 48.7164C164.532 49.0978 165.64 49.9502 166.272 50.0343C165.243 49.1202 164.504 48.4697 163.693 48.5987C163.883 48.4697 164.073 48.3407 164.263 48.2061C164.37 48.1332 164.476 48.0547 164.582 47.9762C165.5 48.3743 166.479 49.2267 167.056 49.3389C166.132 48.4192 165.478 47.7687 164.694 47.8977C164.941 47.7182 165.181 47.5275 165.416 47.3369C166.261 47.707 167.157 48.4809 167.688 48.5874C166.838 47.7406 166.233 47.1462 165.517 47.2583C165.718 47.0957 165.925 46.9275 166.121 46.7536C166.172 46.7144 166.216 46.6695 166.267 46.6303C167.011 47.0228 167.75 47.7967 168.237 47.9369C167.531 47.0901 167.039 46.5013 166.3 46.6022C166.491 46.434 166.681 46.2657 166.871 46.0975C167.559 46.4564 168.237 47.1686 168.684 47.2976C168.035 46.5181 167.587 45.9797 166.905 46.0639C167.101 45.8844 167.302 45.6993 167.492 45.5087C168.091 45.8788 168.662 46.5517 169.059 46.6919C168.522 45.9573 168.141 45.4414 167.531 45.4694C167.638 45.3685 167.744 45.2619 167.845 45.161C167.906 45.0993 167.962 45.0376 168.024 44.9759C168.578 45.318 169.104 45.9349 169.468 46.0639C168.97 45.3853 168.623 44.9086 168.058 44.9367C168.22 44.7684 168.382 44.6002 168.539 44.4263C169.048 44.6955 169.518 45.2227 169.859 45.318C169.412 44.746 169.104 44.3478 168.561 44.3983C168.589 44.3646 168.623 44.3366 168.651 44.303C168.763 44.174 168.88 44.045 168.986 43.9104C169.445 44.1628 169.876 44.6338 170.19 44.7235C169.787 44.202 169.501 43.8375 169.02 43.8767C169.149 43.7197 169.277 43.5571 169.389 43.3832C169.401 43.3608 169.401 43.3328 169.378 43.3216C169.356 43.3047 169.328 43.3103 169.311 43.3328C169.199 43.4898 169.082 43.6412 168.958 43.787C169.003 43.5347 168.914 43.3047 168.757 43.0468C168.695 43.0468 168.628 43.0524 168.567 43.058C168.667 43.3159 168.802 43.602 168.875 43.888C168.774 44.0001 168.673 44.1123 168.572 44.2244C168.55 44.2525 168.522 44.2749 168.5 44.303C168.606 43.8992 168.393 43.5459 168.069 43.0916C168.035 43.0916 168.002 43.0972 167.968 43.1028C168.058 43.4505 168.315 43.9216 168.427 44.3815C168.281 44.5385 168.13 44.6899 167.979 44.8413C168.119 44.3254 167.767 43.8711 167.263 43.2262C167.285 43.6132 167.733 44.2861 167.912 44.903C167.862 44.9535 167.806 45.0096 167.755 45.06C167.655 45.1554 167.554 45.2507 167.448 45.3516C167.587 44.7965 167.207 44.3086 166.67 43.6132C166.698 44.0282 167.179 44.7516 167.375 45.4245C167.196 45.5872 167.017 45.7498 166.838 45.9124C166.955 45.3516 166.586 44.8077 166.071 44.0618C166.071 44.5048 166.524 45.2956 166.709 46.0246C166.563 46.1536 166.412 46.277 166.267 46.4003C166.396 45.7947 165.993 45.2002 165.439 44.3871C165.439 44.8694 165.931 45.7218 166.133 46.5125C166.093 46.5461 166.054 46.5798 166.015 46.6078C165.814 46.7761 165.606 46.9387 165.394 47.1013C165.556 46.4788 165.17 45.7778 164.644 44.8245C164.605 45.3404 165.064 46.3499 165.215 47.2415C164.98 47.421 164.745 47.5948 164.504 47.7631C164.773 47.0621 164.336 46.2713 163.732 45.1666C163.687 45.7442 164.213 46.8826 164.359 47.864C164.286 47.9145 164.219 47.9593 164.146 48.0098C163.928 48.1612 163.704 48.3014 163.474 48.4416C163.788 47.7294 163.413 46.8882 162.859 45.7386C162.831 45.7778 162.803 45.8171 162.781 45.8564C162.825 46.5293 163.211 47.6117 163.301 48.5482C163.049 48.6996 162.797 48.851 162.54 48.9912C162.831 48.3968 162.669 47.7238 162.305 46.8826C162.221 47.1182 162.159 47.3649 162.109 47.6173C162.227 48.0995 162.338 48.6099 162.378 49.0809L162.355 49.0865Z" fill="#263238"/>
<path d="M176.653 45.2002C175.808 44.6619 174.98 43.6692 174.426 43.4618C175.192 44.5161 175.735 45.2619 176.53 45.2619C176.261 45.4021 175.993 45.5479 175.724 45.6993C174.946 45.2002 174.185 44.2917 173.682 44.1011C174.387 45.0712 174.89 45.7554 175.618 45.761C175.388 45.89 175.164 46.0246 174.941 46.1592C174.885 46.1928 174.834 46.2265 174.778 46.2601C174.107 45.7554 173.497 44.875 173.038 44.6562C173.598 45.604 173.989 46.2601 174.739 46.2826C174.527 46.4172 174.308 46.5517 174.096 46.6919C173.474 46.2265 172.92 45.4189 172.495 45.217C173.01 46.0863 173.374 46.6919 174.056 46.72C173.833 46.8658 173.609 47.0172 173.391 47.1742C172.859 46.7144 172.4 45.9573 172.031 45.7554C172.445 46.5686 172.736 47.135 173.346 47.2079C173.223 47.292 173.105 47.3761 172.988 47.4658C172.92 47.5163 172.853 47.5668 172.781 47.6173C172.288 47.1967 171.868 46.4957 171.527 46.3106C171.908 47.0621 172.182 47.5836 172.741 47.6453C172.551 47.7855 172.366 47.9257 172.187 48.0771C171.729 47.7294 171.342 47.135 171.023 46.9836C171.37 47.6229 171.617 48.0659 172.159 48.0939C172.126 48.122 172.092 48.1444 172.059 48.1724C171.924 48.2846 171.796 48.3912 171.661 48.5033C171.247 48.1781 170.895 47.6453 170.604 47.5107C170.923 48.0883 171.147 48.4921 171.628 48.537C171.471 48.6716 171.326 48.8118 171.18 48.9688C171.163 48.9856 171.163 49.0136 171.18 49.0361C171.197 49.0529 171.231 49.0529 171.247 49.0361C171.382 48.8959 171.521 48.7669 171.667 48.6435C171.533 49.0249 171.729 49.4118 171.997 49.939C172.042 49.6305 171.812 49.0697 171.768 48.5594C171.885 48.4641 172.003 48.3687 172.12 48.2734C172.148 48.251 172.176 48.2285 172.204 48.2061C172.014 48.6379 172.232 49.0697 172.54 49.6698C172.59 49.3277 172.333 48.6996 172.288 48.1388C172.456 48.0098 172.629 47.8808 172.803 47.7575C172.579 48.2454 172.859 48.7501 173.251 49.4679C173.29 49.0809 172.948 48.3463 172.876 47.707C172.937 47.6621 172.999 47.6173 173.055 47.578C173.172 47.4995 173.284 47.421 173.402 47.3425C173.172 47.864 173.474 48.4136 173.894 49.1819C173.933 48.7669 173.575 47.9762 173.486 47.2808C173.687 47.1462 173.889 47.0172 174.096 46.8826C173.894 47.4154 174.174 48.0098 174.56 48.8286C174.627 48.3912 174.308 47.5387 174.241 46.7929C174.403 46.6919 174.571 46.591 174.739 46.4901C174.515 47.0677 174.818 47.7182 175.243 48.6099C175.316 48.1332 174.969 47.2135 174.896 46.4003C174.941 46.3723 174.985 46.3499 175.025 46.3218C175.254 46.1872 175.483 46.0582 175.713 45.9349C175.455 46.5181 175.724 47.2752 176.093 48.3014C176.217 47.7967 175.92 46.7256 175.914 45.8227C176.172 45.6825 176.435 45.5479 176.698 45.4189C176.323 46.0695 176.625 46.9219 177.05 48.1051C177.185 47.5444 176.849 46.3386 176.854 45.3404C176.933 45.3012 177.006 45.2675 177.084 45.2283C177.325 45.1161 177.571 45.0096 177.817 44.903C177.38 45.5872 177.655 46.5237 178.046 47.8304C178.231 47.2303 177.94 45.9012 178.007 44.8245C178.276 44.7123 178.55 44.6058 178.824 44.5104C178.298 45.2563 178.6 46.2882 179.031 47.7406C179.233 47.0845 178.908 45.6264 178.992 44.4488C179.076 44.4207 179.16 44.3871 179.244 44.359C179.317 44.331 179.361 44.2525 179.333 44.174C179.305 44.1011 179.227 44.0562 179.149 44.0842C179.059 44.1179 178.97 44.1515 178.875 44.1852C178.225 43.8207 177.576 43.2486 177.017 42.8224C176.866 42.8224 176.72 42.8168 176.569 42.8112C177.297 43.6749 177.895 44.2637 178.64 44.2749C178.354 44.3871 178.074 44.5048 177.795 44.6282C176.849 44.0898 175.892 43.0748 175.282 42.8897C176.155 43.9553 176.782 44.7123 177.604 44.7123C177.392 44.8077 177.185 44.903 176.978 45.0039C176.86 45.06 176.743 45.1217 176.625 45.1834L176.653 45.2002Z" fill="#263238"/>
<path d="M169.664 55.6815C169.048 55.0086 168.612 54.5431 168.013 54.6384C168.108 54.5263 168.197 54.4085 168.293 54.2963C168.343 54.229 168.399 54.1618 168.449 54.0945C169.037 54.3692 169.63 54.93 170.005 55.0142C169.434 54.3917 169.037 53.9599 168.483 54.0496C168.628 53.8645 168.768 53.6795 168.903 53.4888C169.434 53.7019 169.966 54.1674 170.313 54.229C169.803 53.7075 169.451 53.3486 168.925 53.4608C168.953 53.4271 168.975 53.3935 169.003 53.3542C169.104 53.214 169.199 53.0738 169.294 52.928C169.781 53.1299 170.262 53.5505 170.576 53.601C170.117 53.1299 169.792 52.799 169.317 52.8887C169.429 52.7149 169.535 52.5411 169.63 52.356C169.641 52.3336 169.63 52.3055 169.613 52.2943C169.591 52.2831 169.563 52.2943 169.552 52.3111C169.462 52.4794 169.356 52.642 169.249 52.799C169.277 52.3952 168.986 52.0756 168.584 51.6382C168.623 51.9466 168.992 52.4289 169.171 52.9112C169.082 53.0346 168.998 53.1579 168.908 53.2813C168.886 53.3093 168.863 53.3374 168.841 53.3654C168.908 52.9 168.584 52.5411 168.125 52.0419C168.164 52.384 168.584 52.9168 168.774 53.4495C168.645 53.6178 168.511 53.786 168.377 53.9543C168.46 53.4271 168.058 53.0121 167.487 52.4289C167.554 52.8102 168.074 53.4271 168.321 54.0272C168.276 54.0832 168.225 54.1449 168.181 54.201C168.091 54.3076 168.002 54.4141 167.906 54.5207C167.985 53.9543 167.554 53.5056 166.938 52.8831C167.011 53.2925 167.571 53.9599 167.839 54.6048C167.683 54.7898 167.52 54.9693 167.358 55.1488C167.414 54.5823 166.983 54.0832 166.39 53.3935C166.44 53.8365 166.978 54.5655 167.241 55.2721C167.112 55.4179 166.978 55.5581 166.843 55.6983C166.905 55.0815 166.44 54.5375 165.797 53.7916C165.853 54.2683 166.435 55.0646 166.72 55.8273C166.687 55.8666 166.647 55.9002 166.614 55.9395C166.429 56.1301 166.244 56.3152 166.054 56.4947C166.149 55.861 165.685 55.2048 165.053 54.3188C165.069 54.8403 165.64 55.7881 165.886 56.6573C165.674 56.8592 165.455 57.0611 165.237 57.2517C165.427 56.5227 164.907 55.7881 164.18 54.7618C164.196 55.3394 164.845 56.4105 165.103 57.3695C165.041 57.4256 164.974 57.4817 164.913 57.5377C164.711 57.7116 164.504 57.8798 164.297 58.0425C164.538 57.2686 164.017 56.433 163.295 55.2833C163.279 55.9114 163.917 57.1115 164.135 58.1715C163.905 58.3509 163.67 58.5248 163.43 58.693C163.603 58.2051 163.491 57.6948 163.217 57.1115C163.284 57.7789 163.335 58.4294 163.379 59.0687C163.407 59.0519 163.43 59.0295 163.458 59.0126C164.605 59.2987 165.909 60.0838 166.603 60.1006C165.394 59.2482 164.521 58.6369 163.665 58.8612C163.911 58.6762 164.152 58.4911 164.387 58.2948C165.444 58.5584 166.636 59.2818 167.274 59.2987C166.149 58.5079 165.344 57.9415 164.549 58.1602C164.728 58.0144 164.901 57.863 165.075 57.706C165.17 57.6163 165.271 57.5321 165.366 57.4424C166.323 57.7396 167.392 58.4687 167.974 58.5191C166.955 57.706 166.228 57.1396 165.467 57.3527C165.69 57.1452 165.909 56.9321 166.121 56.7134C167 56.9882 167.979 57.6611 168.516 57.706C167.576 56.9601 166.91 56.433 166.211 56.6293C166.396 56.4442 166.58 56.2535 166.759 56.0629C166.804 56.018 166.843 55.9675 166.888 55.9227C167.671 56.2255 168.494 56.9153 168.992 56.9994C168.197 56.2367 167.643 55.7096 166.922 55.889C167.095 55.7039 167.263 55.5133 167.431 55.3226C168.153 55.603 168.908 56.2367 169.367 56.3152C168.64 55.6142 168.13 55.1263 167.464 55.289C167.643 55.0871 167.817 54.8796 167.985 54.6721C168.623 54.9693 169.266 55.575 169.675 55.6703L169.664 55.6815Z" fill="#263238"/>
<path d="M179.406 55.2721C179.003 55.4516 178.46 56.1806 177.862 56.6349C177.688 56.5508 177.515 56.4666 177.341 56.3769C177.951 56.2535 178.332 55.6479 178.858 54.8123C178.421 55.0086 177.828 55.7993 177.185 56.2928C177.14 56.2704 177.095 56.2479 177.05 56.2255C176.815 56.1021 176.586 55.9787 176.356 55.8498C176.989 55.7544 177.481 55.1207 178.141 54.2571C177.649 54.4253 176.91 55.2497 176.155 55.7376C175.897 55.5918 175.646 55.446 175.394 55.289C176.144 55.2553 176.698 54.5431 177.464 53.5449C176.916 53.7299 176.088 54.6665 175.243 55.1936C175.17 55.1488 175.097 55.1039 175.025 55.059C174.801 54.9132 174.577 54.7674 174.359 54.616C175.17 54.616 175.814 53.8814 176.703 52.8495C176.099 53.0177 175.136 53.9767 174.191 54.4982C173.95 54.33 173.715 54.1562 173.486 53.9767C174.398 54.0216 175.103 53.2084 176.093 52.0644C175.433 52.2494 174.381 53.3037 173.346 53.8645C173.279 53.8085 173.206 53.7524 173.139 53.6963C173.077 53.6458 172.988 53.657 172.937 53.7187C172.887 53.7804 172.898 53.8701 172.96 53.9206C173.038 53.9823 173.116 54.0384 173.189 54.0945C173.256 55.2777 172.881 56.7582 173.066 57.4256C173.525 56.0124 173.855 55.003 173.391 54.2459C173.637 54.4253 173.889 54.5992 174.14 54.773C174.196 55.861 173.855 57.2181 174.028 57.835C174.454 56.5283 174.756 55.5918 174.319 54.8908C174.515 55.0198 174.706 55.1432 174.901 55.2609C175.013 55.3282 175.125 55.3955 175.237 55.4628C175.237 56.4666 174.845 57.7004 174.969 58.278C175.444 57.0611 175.78 56.2031 175.349 55.5301C175.612 55.6815 175.881 55.8329 176.149 55.9731C176.149 56.8984 175.791 58.0313 175.903 58.5584C176.34 57.4424 176.647 56.6517 176.256 56.0292C176.485 56.1526 176.72 56.2704 176.955 56.3881C177.011 56.4162 177.073 56.4442 177.129 56.4722C177.067 57.3134 176.647 58.3004 176.715 58.8052C177.213 57.8238 177.554 57.1396 177.173 56.4947C177.403 56.6068 177.632 56.7134 177.862 56.8143C177.8 57.5882 177.42 58.4967 177.481 58.9566C177.94 58.0537 178.253 57.4256 177.906 56.8311C178.153 56.9433 178.399 57.0499 178.645 57.1508C178.544 57.8462 178.153 58.6425 178.186 59.0631C178.645 58.278 178.97 57.7228 178.701 57.1732C178.835 57.2293 178.975 57.2854 179.11 57.3415C179.188 57.3751 179.272 57.4032 179.35 57.4312C179.261 58.0761 178.897 58.8052 178.925 59.1921C179.35 58.4631 179.647 57.9584 179.401 57.448C179.619 57.5321 179.837 57.6107 180.061 57.6892C180.011 58.2612 179.725 58.9061 179.764 59.2594C180.111 58.6201 180.352 58.1771 180.089 57.7004C180.128 57.7116 180.173 57.7284 180.212 57.7453C180.374 57.8013 180.542 57.8518 180.704 57.9023C180.654 58.4294 180.397 59.0127 180.436 59.3323C180.755 58.7547 180.973 58.3453 180.749 57.9191C180.945 57.9752 181.147 58.0256 181.348 58.0649C181.37 58.0649 181.398 58.0537 181.404 58.0313C181.404 58.0088 181.393 57.9808 181.37 57.9752C181.186 57.9359 181.001 57.8855 180.816 57.8294C181.208 57.7396 181.426 57.3639 181.728 56.8536C181.443 56.9826 181.096 57.4761 180.688 57.7901C180.542 57.7453 180.402 57.6948 180.257 57.6443C180.223 57.6331 180.19 57.6219 180.156 57.6051C180.62 57.5378 180.867 57.1172 181.208 56.5339C180.895 56.6741 180.503 57.2293 180.055 57.5658C179.854 57.4929 179.658 57.4144 179.457 57.3359C179.983 57.263 180.262 56.7526 180.654 56.0348C180.313 56.2087 179.876 56.8872 179.373 57.3022C179.305 57.2742 179.233 57.2461 179.166 57.2181C179.037 57.162 178.908 57.1059 178.779 57.0499C179.339 56.9601 179.641 56.4162 180.061 55.6423C179.692 55.8329 179.221 56.562 178.684 57.005C178.46 56.9097 178.242 56.8087 178.024 56.7022C178.584 56.59 178.936 56.0292 179.417 55.2665L179.406 55.2721Z" fill="#263238"/>
<path d="M176.177 62.7532C176.675 62.9214 177.179 63.3084 177.503 63.3476C177.017 62.9046 176.67 62.5961 176.2 62.7195C176.3 62.5401 176.395 62.355 176.479 62.1643C176.491 62.1419 176.479 62.1139 176.457 62.1026C176.435 62.0914 176.407 62.1026 176.395 62.1251C176.317 62.2989 176.222 62.4672 176.127 62.6354C176.127 62.2316 175.819 61.9288 175.388 61.5194C175.444 61.8278 175.847 62.2821 176.054 62.7476C175.976 62.8765 175.892 63.0055 175.813 63.1345C175.797 63.1625 175.774 63.1962 175.752 63.2242C175.791 62.7532 175.444 62.4167 174.952 61.9512C175.013 62.2877 175.467 62.798 175.69 63.314C175.573 63.4934 175.45 63.6673 175.327 63.8411C175.377 63.3084 174.946 62.9214 174.342 62.3718C174.431 62.7476 174.991 63.3308 175.276 63.914C175.231 63.9757 175.192 64.0374 175.148 64.0935C175.064 64.2056 174.98 64.3178 174.896 64.4299C174.941 63.8635 174.476 63.4429 173.827 62.8541C173.928 63.2579 174.526 63.886 174.834 64.5141C174.689 64.7047 174.538 64.901 174.387 65.0861C174.403 64.5141 173.944 64.043 173.312 63.3981C173.39 63.8355 173.972 64.5309 174.28 65.2207C174.157 65.3721 174.034 65.5235 173.911 65.6693C173.933 65.0468 173.435 64.5365 172.747 63.8299C172.836 64.301 173.463 65.058 173.799 65.8039C173.765 65.8432 173.732 65.8824 173.698 65.9217C173.525 66.1236 173.351 66.3198 173.172 66.5161C173.228 65.8768 172.725 65.2543 172.036 64.4075C172.087 64.9234 172.713 65.8375 173.015 66.69C172.814 66.9087 172.613 67.1162 172.406 67.3293C172.551 66.589 171.986 65.888 171.191 64.9066C171.247 65.4842 171.963 66.5105 172.277 67.4526C172.215 67.5143 172.159 67.576 172.098 67.6321C171.907 67.8172 171.712 67.9966 171.516 68.1761C171.706 67.3853 171.135 66.589 170.341 65.4842C170.363 66.1123 171.074 67.2732 171.359 68.3107C171.141 68.5069 170.917 68.692 170.688 68.8771C170.939 67.9966 170.318 67.1218 169.434 65.8936C169.462 66.5778 170.24 67.8508 170.548 68.9892C170.481 69.0453 170.408 69.1014 170.341 69.1519C170.279 69.2023 170.268 69.2921 170.318 69.3537C170.369 69.4154 170.458 69.4266 170.52 69.3762C170.598 69.3145 170.671 69.2528 170.744 69.1911C171.907 69.4042 173.256 70.1052 173.95 70.0828C172.685 69.3089 171.779 68.7537 170.939 69.0341C171.174 68.8378 171.398 68.6303 171.622 68.4228C172.691 68.6191 173.928 69.264 174.566 69.2416C173.396 68.5238 172.551 68.0134 171.773 68.2826C171.941 68.1256 172.103 67.963 172.266 67.8003C172.355 67.705 172.45 67.6153 172.54 67.5199C173.514 67.7555 174.622 68.4172 175.215 68.4284C174.146 67.6826 173.385 67.161 172.635 67.419C172.842 67.1947 173.049 66.9704 173.251 66.7404C174.146 66.9591 175.164 67.5648 175.702 67.576C174.717 66.8918 174.023 66.4096 173.329 66.6451C173.502 66.4488 173.67 66.2469 173.838 66.045C173.877 65.9946 173.916 65.9441 173.956 65.8936C174.756 66.146 175.618 66.7853 176.121 66.8358C175.282 66.1236 174.694 65.6301 173.984 65.8544C174.146 65.6581 174.303 65.4562 174.454 65.2599C175.192 65.4955 175.981 66.0787 176.446 66.1292C175.674 65.473 175.136 65.0244 174.482 65.2263C174.644 65.0132 174.806 64.7945 174.963 64.5758C175.618 64.8337 176.295 65.4001 176.714 65.4674C176.054 64.8337 175.595 64.3963 174.996 64.5309C175.08 64.4131 175.17 64.2897 175.254 64.172C175.304 64.0991 175.349 64.0318 175.399 63.9589C176.004 64.1944 176.63 64.716 177.011 64.7776C176.401 64.1944 175.976 63.7906 175.427 63.914C175.562 63.7177 175.69 63.5215 175.813 63.3252C176.362 63.5046 176.916 63.9364 177.268 63.9757C176.731 63.4878 176.356 63.1513 175.83 63.2971C175.853 63.2579 175.875 63.2242 175.897 63.185C175.987 63.0392 176.076 62.8878 176.16 62.7419L176.177 62.7532Z" fill="#263238"/>
<path d="M179.568 69.0117C179.68 68.8602 179.809 68.7144 179.938 68.5742C179.848 68.9668 180.094 69.3257 180.425 69.8192C180.436 69.5108 180.139 68.978 180.027 68.4733C180.134 68.3611 180.24 68.2546 180.346 68.148C180.374 68.12 180.397 68.0976 180.425 68.0751C180.285 68.5294 180.559 68.9275 180.939 69.4883C180.951 69.1463 180.615 68.5518 180.503 68.0022C180.654 67.8508 180.811 67.705 180.967 67.5592C180.805 68.0695 181.146 68.5406 181.622 69.2023C181.611 68.8154 181.186 68.1312 181.029 67.5031C181.085 67.4526 181.135 67.4022 181.191 67.3517C181.298 67.2564 181.404 67.1666 181.51 67.0713C181.348 67.6209 181.712 68.1256 182.226 68.8378C182.215 68.4228 181.762 67.6826 181.589 67.004C181.773 66.847 181.958 66.69 182.143 66.5385C182.003 67.0937 182.355 67.6489 182.842 68.4172C182.853 67.9742 182.434 67.1722 182.277 66.432C182.428 66.3086 182.579 66.1908 182.73 66.0675C182.579 66.6731 182.96 67.2788 183.486 68.1088C183.497 67.6265 183.038 66.7573 182.87 65.9553C182.909 65.9217 182.948 65.8936 182.993 65.86C183.2 65.703 183.413 65.5459 183.631 65.3889C183.446 66.0002 183.805 66.718 184.297 67.6882C184.359 67.1722 183.933 66.146 183.816 65.2543C184.056 65.0861 184.297 64.9178 184.543 64.7608C184.247 65.4562 184.655 66.2581 185.226 67.3797C185.293 66.8077 184.806 65.6469 184.694 64.6599C184.767 64.615 184.84 64.5645 184.907 64.5197C185.131 64.3795 185.36 64.2449 185.59 64.1103C185.237 64.8449 185.629 65.7422 186.172 66.9872C186.278 66.3703 185.825 65.0861 185.763 64.0093C186.021 63.8635 186.278 63.729 186.535 63.5944C186.104 64.4019 186.535 65.3889 187.14 66.7741C187.257 66.0955 186.759 64.6879 186.698 63.5158C186.776 63.4766 186.854 63.4373 186.938 63.3981C187.011 63.3644 187.039 63.2747 187.005 63.2018C186.972 63.1289 186.882 63.1009 186.81 63.1345C186.72 63.1794 186.636 63.2242 186.552 63.2691C185.455 62.8205 184.286 61.8447 183.603 61.7269C184.678 62.7476 185.45 63.4822 186.328 63.3869C186.06 63.5327 185.797 63.6841 185.534 63.8411C184.526 63.4261 183.452 62.5345 182.825 62.4223C183.821 63.37 184.538 64.0486 185.355 63.9477C185.159 64.0654 184.963 64.1888 184.767 64.3178C184.655 64.3907 184.549 64.4636 184.442 64.5365C183.536 64.1047 182.59 63.2186 182.019 63.084C182.909 64.0374 183.542 64.7103 184.331 64.6094C184.079 64.7832 183.833 64.9627 183.586 65.1422C182.752 64.744 181.891 63.9308 181.365 63.8075C182.182 64.6823 182.764 65.2992 183.491 65.2151C183.284 65.3721 183.071 65.5347 182.87 65.6973C182.82 65.7366 182.769 65.7759 182.719 65.8151C181.986 65.3945 181.275 64.5982 180.8 64.4356C181.471 65.3104 181.941 65.9105 182.685 65.8432C182.489 66.0002 182.294 66.1628 182.098 66.3254C181.426 65.9385 180.772 65.2038 180.329 65.058C180.945 65.86 181.381 66.4152 182.059 66.3535C181.852 66.5273 181.65 66.7068 181.449 66.8862C180.861 66.4937 180.318 65.8039 179.927 65.6469C180.436 66.404 180.8 66.9311 181.409 66.9255C181.298 67.0264 181.191 67.1218 181.085 67.2227C181.023 67.2788 180.962 67.3405 180.9 67.4022C180.363 67.0433 179.854 66.404 179.496 66.2581C179.966 66.9535 180.301 67.4414 180.861 67.4358C180.693 67.5984 180.525 67.7611 180.363 67.9293C179.865 67.6377 179.412 67.0993 179.076 66.9872C179.501 67.576 179.798 67.9854 180.341 67.9518C180.313 67.9854 180.279 68.0134 180.251 68.0415C180.134 68.1649 180.016 68.2938 179.899 68.4228C179.445 68.1536 179.031 67.6657 178.729 67.5648C179.115 68.1032 179.384 68.4733 179.871 68.4565C179.736 68.6079 179.602 68.7705 179.479 68.9388C179.462 68.9612 179.468 68.9892 179.49 69.0004C179.512 69.0173 179.54 69.0117 179.557 68.9892L179.568 69.0117Z" fill="#263238"/>
<path d="M173.01 76.9974C173.234 76.7899 173.452 76.5768 173.665 76.3581C174.543 76.6329 175.523 77.3058 176.06 77.3507C175.12 76.6048 174.454 76.0777 173.749 76.274C173.933 76.0889 174.118 75.8982 174.297 75.7076C174.342 75.6627 174.381 75.6122 174.426 75.5674C175.209 75.8758 176.032 76.56 176.53 76.6441C175.735 75.8814 175.181 75.3543 174.459 75.5337C174.633 75.3487 174.801 75.158 174.969 74.9673C175.69 75.2477 176.446 75.8814 176.905 75.9599C176.177 75.2589 175.668 74.771 175.002 74.9337C175.181 74.7318 175.355 74.5243 175.523 74.3168C176.16 74.614 176.804 75.2197 177.213 75.315C176.597 74.6421 176.16 74.1766 175.562 74.2719C175.657 74.1598 175.746 74.042 175.842 73.9298C175.892 73.8626 175.948 73.7953 175.998 73.728C176.586 74.0027 177.179 74.5635 177.554 74.6477C176.983 74.0252 176.586 73.5934 176.032 73.6831C176.177 73.498 176.317 73.313 176.451 73.1223C176.983 73.3354 177.515 73.8009 177.862 73.8626C177.352 73.341 177 72.9821 176.474 73.0943C176.502 73.0606 176.524 73.027 176.552 72.9877C176.653 72.8475 176.748 72.7073 176.843 72.5615C177.33 72.7634 177.811 73.184 178.125 73.2345C177.666 72.7634 177.341 72.4325 176.866 72.5222C176.977 72.3484 177.084 72.1745 177.179 71.9895C177.19 71.9671 177.179 71.939 177.162 71.9278C177.14 71.9166 177.112 71.9278 177.101 71.9446C177.011 72.1129 176.905 72.2755 176.798 72.4381C176.826 72.0344 176.535 71.7147 176.133 71.2773C176.172 71.5857 176.541 72.068 176.72 72.5503C176.636 72.6737 176.547 72.797 176.457 72.9204C176.435 72.9484 176.412 72.9765 176.39 73.0045C176.457 72.5391 176.133 72.1802 175.674 71.681C175.713 72.0231 176.133 72.5559 176.323 73.0887C176.194 73.2569 176.06 73.4251 175.925 73.5934C176.009 73.0662 175.606 72.6512 175.036 72.068C175.103 72.4493 175.623 73.0662 175.869 73.6663C175.825 73.7224 175.774 73.784 175.73 73.8401C175.64 73.9467 175.551 74.0532 175.455 74.1598C175.534 73.5934 175.103 73.1503 174.487 72.5222C174.56 72.9316 175.12 73.599 175.388 74.2439C175.232 74.429 175.069 74.6084 174.907 74.7879C174.963 74.2215 174.532 73.7223 173.939 73.0326C173.989 73.47 174.526 74.2046 174.789 74.9112C174.661 75.057 174.526 75.1972 174.392 75.3374C174.454 74.7206 173.989 74.1766 173.346 73.4307C173.402 73.9074 173.984 74.7037 174.269 75.4664C174.235 75.5057 174.196 75.5393 174.163 75.5786C173.978 75.7693 173.793 75.9543 173.603 76.1338C173.698 75.5001 173.234 74.8439 172.601 73.9579C172.618 74.4794 173.189 75.4272 173.435 76.2964C173.223 76.4983 173.004 76.7002 172.786 76.8909C172.976 76.1618 172.456 75.4272 171.728 74.4009C171.745 74.9785 172.394 76.0497 172.652 77.0086C172.59 77.0647 172.523 77.1208 172.462 77.1769C172.26 77.3507 172.053 77.5189 171.846 77.6816C172.087 76.9077 171.566 76.0721 170.844 74.9225C170.828 75.5449 171.449 76.7226 171.673 77.7713C171.818 77.7825 171.958 77.7937 172.103 77.7993C172.277 77.6535 172.45 77.5077 172.618 77.3563C172.719 77.2722 172.814 77.1825 172.909 77.0927C173.57 77.2946 174.275 77.6984 174.845 77.9564C174.985 77.962 175.131 77.9676 175.271 77.9732C174.381 77.2722 173.715 76.8067 173.01 77.003V76.9974Z" fill="#263238"/>
<path d="M169.915 75.2758C169.898 75.8197 170.335 76.7563 170.632 77.6928C170.771 77.704 170.917 77.7152 171.057 77.7264C171.012 77.0311 170.536 76.2628 169.915 75.2758Z" fill="#263238"/>
<path d="M172.137 77.7993C172.417 77.8162 172.702 77.833 172.982 77.8498C172.691 77.7545 172.411 77.732 172.137 77.7993Z" fill="#263238"/>
<path d="M188.421 76.6273C188.438 76.5936 188.455 76.56 188.466 76.5263C188.399 76.5039 188.326 76.4815 188.259 76.459C188.225 76.4478 188.192 76.4366 188.158 76.4198C188.326 76.3974 188.46 76.3245 188.589 76.2179C188.64 76.0721 188.69 75.9151 188.735 75.7412C188.528 75.9487 188.304 76.1955 188.063 76.3805C187.862 76.3076 187.666 76.2291 187.464 76.1506C187.99 76.0777 188.27 75.5674 188.662 74.8496C188.321 75.0234 187.884 75.702 187.38 76.117C187.313 76.0889 187.241 76.0609 187.173 76.0328C187.045 75.9768 186.916 75.9207 186.787 75.8646C187.347 75.7749 187.649 75.2309 188.069 74.457C187.699 74.6477 187.229 75.3767 186.692 75.8197C186.468 75.7244 186.25 75.6235 186.032 75.5169C186.591 75.4047 186.944 74.844 187.425 74.0813C187.022 74.2607 186.479 74.9898 185.881 75.444C185.707 75.3599 185.534 75.2758 185.36 75.186C185.97 75.0627 186.351 74.457 186.877 73.6214C186.44 73.8177 185.847 74.6084 185.204 75.1019C185.159 75.0795 185.114 75.0571 185.069 75.0346C184.834 74.9112 184.605 74.7879 184.375 74.6589C185.008 74.5636 185.5 73.9298 186.161 73.0662C185.668 73.2345 184.929 74.0588 184.174 74.5467C183.917 74.4009 183.665 74.2551 183.413 74.0981C184.163 74.0644 184.717 73.3522 185.483 72.354C184.935 72.5391 184.107 73.4756 183.262 74.0028C183.189 73.9579 183.116 73.913 183.044 73.8682C182.82 73.7224 182.596 73.5765 182.378 73.4251C183.189 73.4251 183.833 72.6905 184.722 71.6586C184.118 71.8269 183.155 72.7858 182.21 73.3074C181.969 73.1391 181.734 72.9653 181.505 72.7858C182.417 72.8307 183.122 72.0175 184.112 70.8735C183.452 71.0586 182.4 72.1129 181.365 72.6737C181.298 72.6176 181.225 72.5671 181.158 72.5054C181.096 72.4549 181.007 72.4662 180.956 72.5279C180.906 72.5895 180.917 72.6793 180.979 72.7297C181.057 72.7914 181.135 72.8475 181.208 72.9036C181.275 74.0869 180.9 75.5674 181.085 76.2347C181.544 74.8271 181.874 73.8121 181.41 73.055C181.656 73.2345 181.908 73.4083 182.159 73.5822C182.215 74.6701 181.874 76.0272 182.047 76.6441C182.473 75.3374 182.775 74.4009 182.338 73.6999C182.534 73.8289 182.725 73.9523 182.92 74.07C183.032 74.1373 183.144 74.2046 183.256 74.2719C183.256 75.2758 182.864 76.5095 182.988 77.0871C183.463 75.8702 183.799 75.0122 183.368 74.3392C183.631 74.4906 183.9 74.6421 184.168 74.7823C184.168 75.7076 183.81 76.8404 183.922 77.3675C184.359 76.2516 184.666 75.4608 184.275 74.8383C184.504 74.9617 184.739 75.0795 184.974 75.1972C185.03 75.2253 185.092 75.2533 185.148 75.2814C185.086 76.1226 184.666 77.1096 184.734 77.6143C185.232 76.6273 185.573 75.9431 185.192 75.3038C185.422 75.416 185.651 75.5225 185.881 75.6235C185.825 76.3749 185.467 77.2442 185.5 77.7208C185.511 77.7208 185.517 77.7208 185.528 77.7208C185.97 76.846 186.267 76.2291 185.925 75.6459C186.172 75.758 186.418 75.8646 186.664 75.9655C186.58 76.5319 186.312 77.16 186.228 77.6031C186.278 77.5919 186.328 77.5862 186.379 77.575C186.737 76.9469 186.95 76.4646 186.715 75.9936C186.849 76.0497 186.989 76.1057 187.123 76.1618C187.201 76.1955 187.285 76.2235 187.364 76.2515C187.308 76.6385 187.157 77.0591 187.05 77.418C187.14 77.3956 187.229 77.3675 187.308 77.3451C187.498 76.9469 187.576 76.6048 187.414 76.2684C187.632 76.3525 187.85 76.431 188.074 76.5095C188.058 76.7002 188.018 76.8909 187.968 77.0815C188.058 77.0367 188.141 76.9862 188.214 76.9357C188.214 76.7955 188.181 76.6609 188.108 76.5207C188.147 76.5319 188.192 76.5488 188.231 76.5656C188.298 76.588 188.36 76.6048 188.427 76.6273H188.421Z" fill="#263238"/>
<path d="M166.888 64.9234C166.966 64.901 167.011 64.8225 166.989 64.744C166.966 64.6655 166.888 64.6206 166.81 64.643C166.715 64.6711 166.625 64.6991 166.53 64.7272C165.539 64.0823 164.571 62.9046 163.922 62.6578C164.784 63.8635 165.411 64.7272 166.289 64.7945C165.998 64.8842 165.707 64.9851 165.422 65.0917C164.75 64.6487 164.09 63.9477 163.547 63.5215C163.547 63.6504 163.547 63.7738 163.547 63.9028C164.107 64.6318 164.594 65.1197 165.226 65.1646C165.008 65.2487 164.795 65.3328 164.583 65.4169C164.459 65.4674 164.342 65.5179 164.224 65.5684C163.995 65.4001 163.766 65.1926 163.547 64.9739C163.547 65.1309 163.547 65.288 163.542 65.4394C163.715 65.5403 163.9 65.602 164.101 65.6188C163.911 65.703 163.721 65.7927 163.53 65.8824C163.53 65.9609 163.53 66.0394 163.525 66.1179C163.777 66.0058 164.023 65.8936 164.275 65.7927C163.855 66.4208 164.107 67.2844 164.454 68.4957C164.627 67.9461 164.364 66.718 164.437 65.7254C164.515 65.6917 164.594 65.6581 164.672 65.63C164.918 65.5347 165.17 65.445 165.422 65.3553C164.941 66.0114 165.159 66.9647 165.461 68.2938C165.685 67.705 165.478 66.3647 165.618 65.288C165.898 65.1926 166.177 65.1085 166.457 65.0244C165.881 65.7366 166.121 66.7853 166.457 68.2602C166.698 67.6153 166.468 66.1404 166.631 64.9739C166.715 64.9515 166.804 64.9234 166.888 64.901V64.9234Z" fill="#263238"/>
<path d="M163.43 68.4396C163.446 68.5069 163.469 68.5686 163.486 68.6415C163.586 68.3275 163.53 67.7723 163.486 67.1778C163.469 67.6097 163.446 68.0359 163.424 68.4453L163.43 68.4396Z" fill="#263238"/>
<path d="M165.411 76.6441C165.344 76.5319 165.271 76.4198 165.198 76.3132C165.651 75.416 166.558 74.4906 166.709 73.9242C165.735 74.7935 165.053 75.4047 165.125 76.2011C164.957 75.9431 164.79 75.6907 164.61 75.444C165.03 74.6196 165.858 73.7728 165.998 73.2513C165.103 74.0476 164.471 74.614 164.538 75.3431C164.387 75.13 164.23 74.9168 164.073 74.7094C164.034 74.6589 163.995 74.6084 163.956 74.5579C164.392 73.8345 165.209 73.1447 165.377 72.6681C164.487 73.3186 163.877 73.7728 163.928 74.5243C163.777 74.3224 163.62 74.1205 163.458 73.9242C163.861 73.2625 164.61 72.6232 164.767 72.1858C163.95 72.7858 163.385 73.2008 163.43 73.885C163.318 73.7448 163.2 73.6046 163.083 73.47C163.083 73.5485 163.072 73.627 163.066 73.7055C163.133 73.7896 163.2 73.8738 163.267 73.9579C163.195 73.9411 163.128 73.9298 163.055 73.9242C163.055 74.0084 163.049 74.0869 163.044 74.171C163.155 74.1429 163.262 74.1149 163.374 74.0925C163.491 74.2439 163.609 74.4009 163.721 74.5579C163.497 74.4962 163.267 74.5075 163.027 74.5748C163.027 74.6925 163.016 74.8103 163.01 74.9225C163.279 74.8383 163.558 74.7542 163.827 74.7037C163.855 74.743 163.889 74.7879 163.917 74.8271C164.068 75.0402 164.219 75.2589 164.37 75.4776C163.978 75.3487 163.536 75.444 163.004 75.6571C163.004 75.758 163.004 75.8702 163.004 75.9711C163.474 75.8646 164.006 75.7188 164.499 75.6683C164.661 75.9151 164.817 76.1618 164.974 76.4086C164.443 76.1618 163.827 76.3469 163.044 76.7002C163.049 76.7731 163.049 76.8572 163.055 76.9245C163.1 76.9245 163.139 76.9357 163.183 76.9413C163.754 76.8179 164.443 76.6161 165.069 76.5656C165.114 76.6385 165.159 76.7114 165.204 76.7843C165.288 76.9301 165.366 77.0759 165.45 77.2161C165.556 77.2273 165.657 77.2385 165.763 77.2498C165.646 77.0479 165.534 76.8516 165.411 76.6553V76.6441Z" fill="#263238"/>
<path d="M163.223 71.5521C163.217 71.6418 163.211 71.7259 163.206 71.8156C163.385 71.6306 163.536 71.4567 163.598 71.3109C163.463 71.395 163.34 71.4792 163.223 71.5577V71.5521Z" fill="#263238"/>
<path d="M166.513 77.3171C166.681 77.3339 166.843 77.3507 167.011 77.3675C167.459 76.6553 167.929 75.9936 168.024 75.5393C167.347 76.2179 166.804 76.7675 166.513 77.3171Z" fill="#263238"/>
<path d="M165.948 77.2554C166.412 76.3076 167.229 75.3374 167.352 74.743C166.384 75.7132 165.69 76.4142 165.763 77.2329C165.825 77.2385 165.886 77.2441 165.948 77.2554Z" fill="#263238"/>
<path d="M163.15 72.5559C163.139 72.7073 163.127 72.8531 163.122 72.9989C163.525 72.5222 164.056 72.0904 164.196 71.7596C163.749 72.0456 163.385 72.2867 163.15 72.5559Z" fill="#263238"/>
</g>
<path d="M202.019 58.8444L204.493 56.2143L207.918 61.0483C207.918 61.0483 205.025 63.1065 202.255 63.0223L201.936 62.3101C201.421 61.1549 201.449 59.8763 202.019 58.8388V58.8444Z" fill="#FFB573"/>
<path d="M208.46 56.4666L209.429 58.2948C209.871 59.1304 209.557 60.1623 208.729 60.6109L207.918 61.0483L204.493 56.2143L206.452 55.6254C207.235 55.3899 208.074 55.7432 208.455 56.4666H208.46Z" fill="#FFB573"/>
<path d="M188.947 49.4062L189.154 50.4773L189.389 51.6101C189.557 52.3672 189.725 53.1243 189.915 53.8758C190.279 55.3787 190.71 56.8536 191.18 58.278C191.667 59.6912 192.21 61.0539 192.836 62.2653C193.469 63.4598 194.196 64.5085 194.89 65.1253L193.698 64.5365C193.351 64.486 193.29 64.5982 193.469 64.587C193.642 64.587 193.967 64.4972 194.319 64.3458C195.036 64.0318 195.886 63.5327 196.703 62.9494C197.537 62.3774 198.376 61.7213 199.21 61.0483C200.044 60.381 200.895 59.6463 201.712 58.979L201.796 58.9061C202.635 58.2163 203.877 58.3397 204.566 59.1809C205.075 59.809 205.142 60.6558 204.795 61.3343C204.224 62.4559 203.609 63.4373 202.92 64.4468C202.232 65.4394 201.482 66.404 200.643 67.3405C199.781 68.2658 198.858 69.1911 197.627 70.0211C197.005 70.4361 196.306 70.8399 195.394 71.1651C194.935 71.3221 194.42 71.4567 193.816 71.5128C193.217 71.5689 192.534 71.5465 191.824 71.367C191.432 71.2717 191.079 71.1034 190.772 70.8791L190.637 70.7782C188.69 69.365 187.414 67.677 186.379 66.017C185.869 65.1814 185.411 64.3402 184.996 63.499C184.599 62.6522 184.235 61.8054 183.9 60.953C183.234 59.2538 182.708 57.5434 182.26 55.8217C182.042 54.9581 181.835 54.1001 181.661 53.2308C181.572 52.799 181.488 52.3616 181.415 51.9186C181.337 51.4643 181.275 51.0606 181.202 50.5334C180.906 48.3855 182.406 46.4059 184.549 46.1087C186.614 45.8227 188.528 47.2079 188.925 49.238L188.958 49.395L188.947 49.4062Z" fill="#FFB573"/>
<path d="M183.581 43.5178C186.832 43.8543 189.44 46.019 191.258 52.9112C189.859 54.8515 181.046 59.108 181.046 59.108C181.046 59.108 176.138 42.7439 183.581 43.5178Z" fill="#263238"/>
</g>
<path d="M32.2 82C31.8833 81.4167 31.425 80.975 30.825 80.675C30.2417 80.3583 29.55 80.2 28.75 80.2C27.3667 80.2 26.2583 80.6583 25.425 81.575C24.5917 82.475 24.175 83.6833 24.175 85.2C24.175 86.8167 24.6083 88.0833 25.475 89C26.3583 89.9 27.5667 90.35 29.1 90.35C30.15 90.35 31.0333 90.0833 31.75 89.55C32.4833 89.0167 33.0167 88.25 33.35 87.25H27.925V84.1H37.225V88.075C36.9083 89.1417 36.3667 90.1333 35.6 91.05C34.85 91.9667 33.8917 92.7083 32.725 93.275C31.5583 93.8417 30.2417 94.125 28.775 94.125C27.0417 94.125 25.4917 93.75 24.125 93C22.775 92.2333 21.7167 91.175 20.95 89.825C20.2 88.475 19.825 86.9333 19.825 85.2C19.825 83.4667 20.2 81.925 20.95 80.575C21.7167 79.2083 22.775 78.15 24.125 77.4C25.475 76.6333 27.0167 76.25 28.75 76.25C30.85 76.25 32.6167 76.7583 34.05 77.775C35.5 78.7917 36.4583 80.2 36.925 82H32.2ZM52.743 86.8C52.743 87.2 52.718 87.6167 52.668 88.05H42.993C43.0596 88.9167 43.3346 89.5833 43.818 90.05C44.318 90.5 44.9263 90.725 45.643 90.725C46.7096 90.725 47.4513 90.275 47.868 89.375H52.418C52.1846 90.2917 51.7596 91.1167 51.143 91.85C50.543 92.5833 49.7846 93.1583 48.868 93.575C47.9513 93.9917 46.9263 94.2 45.793 94.2C44.4263 94.2 43.2096 93.9083 42.143 93.325C41.0763 92.7417 40.243 91.9083 39.643 90.825C39.043 89.7417 38.743 88.475 38.743 87.025C38.743 85.575 39.0346 84.3083 39.618 83.225C40.218 82.1417 41.0513 81.3083 42.118 80.725C43.1846 80.1417 44.4096 79.85 45.793 79.85C47.143 79.85 48.343 80.1333 49.393 80.7C50.443 81.2667 51.2596 82.075 51.843 83.125C52.443 84.175 52.743 85.4 52.743 86.8ZM48.368 85.675C48.368 84.9417 48.118 84.3583 47.618 83.925C47.118 83.4917 46.493 83.275 45.743 83.275C45.0263 83.275 44.418 83.4833 43.918 83.9C43.4346 84.3167 43.1346 84.9083 43.018 85.675H48.368ZM63.4982 79.9C65.1316 79.9 66.4316 80.4333 67.3982 81.5C68.3816 82.55 68.8732 84 68.8732 85.85V94H64.6232V86.425C64.6232 85.4917 64.3816 84.7667 63.8982 84.25C63.4149 83.7333 62.7649 83.475 61.9482 83.475C61.1316 83.475 60.4816 83.7333 59.9982 84.25C59.5149 84.7667 59.2732 85.4917 59.2732 86.425V94H54.9982V80.05H59.2732V81.9C59.7066 81.2833 60.2899 80.8 61.0232 80.45C61.7566 80.0833 62.5816 79.9 63.4982 79.9ZM84.9939 86.8C84.9939 87.2 84.9689 87.6167 84.9189 88.05H75.2439C75.3106 88.9167 75.5856 89.5833 76.0689 90.05C76.5689 90.5 77.1773 90.725 77.8939 90.725C78.9606 90.725 79.7023 90.275 80.1189 89.375H84.6689C84.4356 90.2917 84.0106 91.1167 83.3939 91.85C82.7939 92.5833 82.0356 93.1583 81.1189 93.575C80.2023 93.9917 79.1773 94.2 78.0439 94.2C76.6773 94.2 75.4606 93.9083 74.3939 93.325C73.3273 92.7417 72.4939 91.9083 71.8939 90.825C71.2939 89.7417 70.9939 88.475 70.9939 87.025C70.9939 85.575 71.2856 84.3083 71.8689 83.225C72.4689 82.1417 73.3023 81.3083 74.3689 80.725C75.4356 80.1417 76.6606 79.85 78.0439 79.85C79.3939 79.85 80.5939 80.1333 81.6439 80.7C82.6939 81.2667 83.5106 82.075 84.0939 83.125C84.6939 84.175 84.9939 85.4 84.9939 86.8ZM80.6189 85.675C80.6189 84.9417 80.3689 84.3583 79.8689 83.925C79.3689 83.4917 78.7439 83.275 77.9939 83.275C77.2773 83.275 76.6689 83.4833 76.1689 83.9C75.6856 84.3167 75.3856 84.9083 75.2689 85.675H80.6189ZM91.5242 82.375C92.0242 81.6083 92.6492 81.0083 93.3992 80.575C94.1492 80.125 94.9826 79.9 95.8992 79.9V84.425H94.7242C93.6576 84.425 92.8576 84.6583 92.3242 85.125C91.7909 85.575 91.5242 86.375 91.5242 87.525V94H87.2492V80.05H91.5242V82.375ZM97.0926 87C97.0926 85.5667 97.3592 84.3083 97.8926 83.225C98.4426 82.1417 99.1842 81.3083 100.118 80.725C101.051 80.1417 102.093 79.85 103.243 79.85C104.226 79.85 105.084 80.05 105.818 80.45C106.568 80.85 107.143 81.375 107.543 82.025V80.05H111.818V94H107.543V92.025C107.126 92.675 106.543 93.2 105.793 93.6C105.059 94 104.201 94.2 103.218 94.2C102.084 94.2 101.051 93.9083 100.118 93.325C99.1842 92.725 98.4426 91.8833 97.8926 90.8C97.3592 89.7 97.0926 88.4333 97.0926 87ZM107.543 87.025C107.543 85.9583 107.243 85.1167 106.643 84.5C106.059 83.8833 105.343 83.575 104.493 83.575C103.643 83.575 102.918 83.8833 102.318 84.5C101.734 85.1 101.443 85.9333 101.443 87C101.443 88.0667 101.734 88.9167 102.318 89.55C102.918 90.1667 103.643 90.475 104.493 90.475C105.343 90.475 106.059 90.1667 106.643 89.55C107.243 88.9333 107.543 88.0917 107.543 87.025ZM122.685 90.375V94H120.51C118.96 94 117.752 93.625 116.885 92.875C116.019 92.1083 115.585 90.8667 115.585 89.15V83.6H113.885V80.05H115.585V76.65H119.86V80.05H122.66V83.6H119.86V89.2C119.86 89.6167 119.96 89.9167 120.16 90.1C120.36 90.2833 120.694 90.375 121.16 90.375H122.685ZM138.217 86.8C138.217 87.2 138.192 87.6167 138.142 88.05H128.467C128.533 88.9167 128.808 89.5833 129.292 90.05C129.792 90.5 130.4 90.725 131.117 90.725C132.183 90.725 132.925 90.275 133.342 89.375H137.892C137.658 90.2917 137.233 91.1167 136.617 91.85C136.017 92.5833 135.258 93.1583 134.342 93.575C133.425 93.9917 132.4 94.2 131.267 94.2C129.9 94.2 128.683 93.9083 127.617 93.325C126.55 92.7417 125.717 91.9083 125.117 90.825C124.517 89.7417 124.217 88.475 124.217 87.025C124.217 85.575 124.508 84.3083 125.092 83.225C125.692 82.1417 126.525 81.3083 127.592 80.725C128.658 80.1417 129.883 79.85 131.267 79.85C132.617 79.85 133.817 80.1333 134.867 80.7C135.917 81.2667 136.733 82.075 137.317 83.125C137.917 84.175 138.217 85.4 138.217 86.8ZM133.842 85.675C133.842 84.9417 133.592 84.3583 133.092 83.925C132.592 83.4917 131.967 83.275 131.217 83.275C130.5 83.275 129.892 83.4833 129.392 83.9C128.908 84.3167 128.608 84.9083 128.492 85.675H133.842ZM19.7 111C19.7 109.567 19.9667 108.308 20.5 107.225C21.05 106.142 21.7917 105.308 22.725 104.725C23.6583 104.142 24.7 103.85 25.85 103.85C26.8333 103.85 27.6917 104.05 28.425 104.45C29.175 104.85 29.75 105.375 30.15 106.025V104.05H34.425V118H30.15V116.025C29.7333 116.675 29.15 117.2 28.4 117.6C27.6667 118 26.8083 118.2 25.825 118.2C24.6917 118.2 23.6583 117.908 22.725 117.325C21.7917 116.725 21.05 115.883 20.5 114.8C19.9667 113.7 19.7 112.433 19.7 111ZM30.15 111.025C30.15 109.958 29.85 109.117 29.25 108.5C28.6667 107.883 27.95 107.575 27.1 107.575C26.25 107.575 25.525 107.883 24.925 108.5C24.3417 109.1 24.05 109.933 24.05 111C24.05 112.067 24.3417 112.917 24.925 113.55C25.525 114.167 26.25 114.475 27.1 114.475C27.95 114.475 28.6667 114.167 29.25 113.55C29.85 112.933 30.15 112.092 30.15 111.025ZM46.0178 103.9C47.6511 103.9 48.9511 104.433 49.9178 105.5C50.9011 106.55 51.3928 108 51.3928 109.85V118H47.1428V110.425C47.1428 109.492 46.9011 108.767 46.4178 108.25C45.9344 107.733 45.2844 107.475 44.4678 107.475C43.6511 107.475 43.0011 107.733 42.5178 108.25C42.0344 108.767 41.7928 109.492 41.7928 110.425V118H37.5178V104.05H41.7928V105.9C42.2261 105.283 42.8094 104.8 43.5428 104.45C44.2761 104.083 45.1011 103.9 46.0178 103.9ZM53.5135 111C53.5135 109.567 53.7801 108.308 54.3135 107.225C54.8635 106.142 55.6051 105.308 56.5385 104.725C57.4718 104.142 58.5135 103.85 59.6635 103.85C60.5801 103.85 61.4135 104.042 62.1635 104.425C62.9301 104.808 63.5301 105.325 63.9635 105.975V99.5H68.2385V118H63.9635V116C63.5635 116.667 62.9885 117.2 62.2385 117.6C61.5051 118 60.6468 118.2 59.6635 118.2C58.5135 118.2 57.4718 117.908 56.5385 117.325C55.6051 116.725 54.8635 115.883 54.3135 114.8C53.7801 113.7 53.5135 112.433 53.5135 111ZM63.9635 111.025C63.9635 109.958 63.6635 109.117 63.0635 108.5C62.4801 107.883 61.7635 107.575 60.9135 107.575C60.0635 107.575 59.3385 107.883 58.7385 108.5C58.1551 109.1 57.8635 109.933 57.8635 111C57.8635 112.067 58.1551 112.917 58.7385 113.55C59.3385 114.167 60.0635 114.475 60.9135 114.475C61.7635 114.475 62.4801 114.167 63.0635 113.55C63.6635 112.933 63.9635 112.092 63.9635 111.025ZM82.9791 118.175C81.6958 118.175 80.5458 117.967 79.5291 117.55C78.5124 117.133 77.6958 116.517 77.0791 115.7C76.4791 114.883 76.1624 113.9 76.1291 112.75H80.6791C80.7458 113.4 80.9708 113.9 81.3541 114.25C81.7374 114.583 82.2374 114.75 82.8541 114.75C83.4874 114.75 83.9874 114.608 84.3541 114.325C84.7208 114.025 84.9041 113.617 84.9041 113.1C84.9041 112.667 84.7541 112.308 84.4541 112.025C84.1708 111.742 83.8124 111.508 83.3791 111.325C82.9624 111.142 82.3624 110.933 81.5791 110.7C80.4458 110.35 79.5208 110 78.8041 109.65C78.0874 109.3 77.4708 108.783 76.9541 108.1C76.4374 107.417 76.1791 106.525 76.1791 105.425C76.1791 103.792 76.7708 102.517 77.9541 101.6C79.1374 100.667 80.6791 100.2 82.5791 100.2C84.5124 100.2 86.0708 100.667 87.2541 101.6C88.4374 102.517 89.0708 103.8 89.1541 105.45H84.5291C84.4958 104.883 84.2874 104.442 83.9041 104.125C83.5208 103.792 83.0291 103.625 82.4291 103.625C81.9124 103.625 81.4958 103.767 81.1791 104.05C80.8624 104.317 80.7041 104.708 80.7041 105.225C80.7041 105.792 80.9708 106.233 81.5041 106.55C82.0374 106.867 82.8708 107.208 84.0041 107.575C85.1374 107.958 86.0541 108.325 86.7541 108.675C87.4708 109.025 88.0874 109.533 88.6041 110.2C89.1208 110.867 89.3791 111.725 89.3791 112.775C89.3791 113.775 89.1208 114.683 88.6041 115.5C88.1041 116.317 87.3708 116.967 86.4041 117.45C85.4374 117.933 84.2958 118.175 82.9791 118.175ZM100.585 103.9C102.185 103.9 103.468 104.433 104.435 105.5C105.402 106.55 105.885 108 105.885 109.85V118H101.635V110.425C101.635 109.492 101.393 108.767 100.91 108.25C100.427 107.733 99.7766 107.475 98.96 107.475C98.1433 107.475 97.4933 107.733 97.01 108.25C96.5266 108.767 96.285 109.492 96.285 110.425V118H92.01V99.5H96.285V105.925C96.7183 105.308 97.31 104.817 98.06 104.45C98.81 104.083 99.6516 103.9 100.585 103.9ZM108.006 111C108.006 109.567 108.272 108.308 108.806 107.225C109.356 106.142 110.097 105.308 111.031 104.725C111.964 104.142 113.006 103.85 114.156 103.85C115.139 103.85 115.997 104.05 116.731 104.45C117.481 104.85 118.056 105.375 118.456 106.025V104.05H122.731V118H118.456V116.025C118.039 116.675 117.456 117.2 116.706 117.6C115.972 118 115.114 118.2 114.131 118.2C112.997 118.2 111.964 117.908 111.031 117.325C110.097 116.725 109.356 115.883 108.806 114.8C108.272 113.7 108.006 112.433 108.006 111ZM118.456 111.025C118.456 109.958 118.156 109.117 117.556 108.5C116.972 107.883 116.256 107.575 115.406 107.575C114.556 107.575 113.831 107.883 113.231 108.5C112.647 109.1 112.356 109.933 112.356 111C112.356 112.067 112.647 112.917 113.231 113.55C113.831 114.167 114.556 114.475 115.406 114.475C116.256 114.475 116.972 114.167 117.556 113.55C118.156 112.933 118.456 112.092 118.456 111.025ZM130.098 106.375C130.598 105.608 131.223 105.008 131.973 104.575C132.723 104.125 133.557 103.9 134.473 103.9V108.425H133.298C132.232 108.425 131.432 108.658 130.898 109.125C130.365 109.575 130.098 110.375 130.098 111.525V118H125.823V104.05H130.098V106.375ZM149.667 110.8C149.667 111.2 149.642 111.617 149.592 112.05H139.917C139.983 112.917 140.258 113.583 140.742 114.05C141.242 114.5 141.85 114.725 142.567 114.725C143.633 114.725 144.375 114.275 144.792 113.375H149.342C149.108 114.292 148.683 115.117 148.067 115.85C147.467 116.583 146.708 117.158 145.792 117.575C144.875 117.992 143.85 118.2 142.717 118.2C141.35 118.2 140.133 117.908 139.067 117.325C138 116.742 137.167 115.908 136.567 114.825C135.967 113.742 135.667 112.475 135.667 111.025C135.667 109.575 135.958 108.308 136.542 107.225C137.142 106.142 137.975 105.308 139.042 104.725C140.108 104.142 141.333 103.85 142.717 103.85C144.067 103.85 145.267 104.133 146.317 104.7C147.367 105.267 148.183 106.075 148.767 107.125C149.367 108.175 149.667 109.4 149.667 110.8ZM145.292 109.675C145.292 108.942 145.042 108.358 144.542 107.925C144.042 107.492 143.417 107.275 142.667 107.275C141.95 107.275 141.342 107.483 140.842 107.9C140.358 108.317 140.058 108.908 139.942 109.675H145.292ZM24.825 124.45V142H20.55V124.45H24.825ZM36.423 127.9C38.0564 127.9 39.3564 128.433 40.323 129.5C41.3064 130.55 41.798 132 41.798 133.85V142H37.548V134.425C37.548 133.492 37.3064 132.767 36.823 132.25C36.3397 131.733 35.6897 131.475 34.873 131.475C34.0564 131.475 33.4064 131.733 32.923 132.25C32.4397 132.767 32.198 133.492 32.198 134.425V142H27.923V128.05H32.198V129.9C32.6314 129.283 33.2147 128.8 33.948 128.45C34.6814 128.083 35.5064 127.9 36.423 127.9ZM51.0438 138L54.0688 128.05H58.6188L53.6688 142H48.3938L43.4438 128.05H48.0188L51.0438 138ZM66.7682 142.2C65.4015 142.2 64.1682 141.908 63.0682 141.325C61.9848 140.742 61.1265 139.908 60.4932 138.825C59.8765 137.742 59.5682 136.475 59.5682 135.025C59.5682 133.592 59.8848 132.333 60.5182 131.25C61.1515 130.15 62.0182 129.308 63.1182 128.725C64.2182 128.142 65.4515 127.85 66.8182 127.85C68.1848 127.85 69.4182 128.142 70.5182 128.725C71.6182 129.308 72.4848 130.15 73.1182 131.25C73.7515 132.333 74.0682 133.592 74.0682 135.025C74.0682 136.458 73.7432 137.725 73.0932 138.825C72.4598 139.908 71.5848 140.742 70.4682 141.325C69.3682 141.908 68.1348 142.2 66.7682 142.2ZM66.7682 138.5C67.5848 138.5 68.2765 138.2 68.8432 137.6C69.4265 137 69.7182 136.142 69.7182 135.025C69.7182 133.908 69.4348 133.05 68.8682 132.45C68.3182 131.85 67.6348 131.55 66.8182 131.55C65.9848 131.55 65.2932 131.85 64.7432 132.45C64.1932 133.033 63.9182 133.892 63.9182 135.025C63.9182 136.142 64.1848 137 64.7182 137.6C65.2682 138.2 65.9515 138.5 66.7682 138.5ZM78.4861 126.6C77.7361 126.6 77.1195 126.383 76.6361 125.95C76.1695 125.5 75.9361 124.95 75.9361 124.3C75.9361 123.633 76.1695 123.083 76.6361 122.65C77.1195 122.2 77.7361 121.975 78.4861 121.975C79.2195 121.975 79.8195 122.2 80.2861 122.65C80.7695 123.083 81.0111 123.633 81.0111 124.3C81.0111 124.95 80.7695 125.5 80.2861 125.95C79.8195 126.383 79.2195 126.6 78.4861 126.6ZM80.6111 128.05V142H76.3361V128.05H80.6111ZM82.8592 135.025C82.8592 133.575 83.1508 132.308 83.7342 131.225C84.3342 130.142 85.1592 129.308 86.2092 128.725C87.2758 128.142 88.4925 127.85 89.8592 127.85C91.6092 127.85 93.0675 128.308 94.2342 129.225C95.4175 130.142 96.1925 131.433 96.5592 133.1H92.0092C91.6258 132.033 90.8842 131.5 89.7842 131.5C89.0008 131.5 88.3758 131.808 87.9092 132.425C87.4425 133.025 87.2092 133.892 87.2092 135.025C87.2092 136.158 87.4425 137.033 87.9092 137.65C88.3758 138.25 89.0008 138.55 89.7842 138.55C90.8842 138.55 91.6258 138.017 92.0092 136.95H96.5592C96.1925 138.583 95.4175 139.867 94.2342 140.8C93.0508 141.733 91.5925 142.2 89.8592 142.2C88.4925 142.2 87.2758 141.908 86.2092 141.325C85.1592 140.742 84.3342 139.908 83.7342 138.825C83.1508 137.742 82.8592 136.475 82.8592 135.025ZM111.996 134.8C111.996 135.2 111.971 135.617 111.921 136.05H102.246C102.313 136.917 102.588 137.583 103.071 138.05C103.571 138.5 104.179 138.725 104.896 138.725C105.963 138.725 106.704 138.275 107.121 137.375H111.671C111.438 138.292 111.013 139.117 110.396 139.85C109.796 140.583 109.038 141.158 108.121 141.575C107.204 141.992 106.179 142.2 105.046 142.2C103.679 142.2 102.463 141.908 101.396 141.325C100.329 140.742 99.4959 139.908 98.8959 138.825C98.2959 137.742 97.9959 136.475 97.9959 135.025C97.9959 133.575 98.2876 132.308 98.8709 131.225C99.4709 130.142 100.304 129.308 101.371 128.725C102.438 128.142 103.663 127.85 105.046 127.85C106.396 127.85 107.596 128.133 108.646 128.7C109.696 129.267 110.513 130.075 111.096 131.125C111.696 132.175 111.996 133.4 111.996 134.8ZM107.621 133.675C107.621 132.942 107.371 132.358 106.871 131.925C106.371 131.492 105.746 131.275 104.996 131.275C104.279 131.275 103.671 131.483 103.171 131.9C102.688 132.317 102.388 132.908 102.271 133.675H107.621ZM119.926 142.2C118.71 142.2 117.626 141.992 116.676 141.575C115.726 141.158 114.976 140.592 114.426 139.875C113.876 139.142 113.568 138.325 113.501 137.425H117.726C117.776 137.908 118.001 138.3 118.401 138.6C118.801 138.9 119.293 139.05 119.876 139.05C120.41 139.05 120.818 138.95 121.101 138.75C121.401 138.533 121.551 138.258 121.551 137.925C121.551 137.525 121.343 137.233 120.926 137.05C120.51 136.85 119.835 136.633 118.901 136.4C117.901 136.167 117.068 135.925 116.401 135.675C115.735 135.408 115.16 135 114.676 134.45C114.193 133.883 113.951 133.125 113.951 132.175C113.951 131.375 114.168 130.65 114.601 130C115.051 129.333 115.701 128.808 116.551 128.425C117.418 128.042 118.443 127.85 119.626 127.85C121.376 127.85 122.751 128.283 123.751 129.15C124.768 130.017 125.351 131.167 125.501 132.6H121.551C121.485 132.117 121.268 131.733 120.901 131.45C120.551 131.167 120.085 131.025 119.501 131.025C119.001 131.025 118.618 131.125 118.351 131.325C118.085 131.508 117.951 131.767 117.951 132.1C117.951 132.5 118.16 132.8 118.576 133C119.01 133.2 119.676 133.4 120.576 133.6C121.61 133.867 122.451 134.133 123.101 134.4C123.751 134.65 124.318 135.067 124.801 135.65C125.301 136.217 125.56 136.983 125.576 137.95C125.576 138.767 125.343 139.5 124.876 140.15C124.426 140.783 123.768 141.283 122.901 141.65C122.051 142.017 121.06 142.2 119.926 142.2Z" fill="#F5F5F5"/>
<defs>
<clipPath id="clip0_89_4">
<rect width="217" height="192" fill="white" transform="translate(117)"/>
</clipPath>
</defs>
</svg>
